<svg width="106" height="122" viewBox="0 0 106 122" fill="none" xmlns="http://www.w3.org/2000/svg">
<mask id="path-1-outside-1_874_9132" maskUnits="userSpaceOnUse" x="14" y="17" width="88" height="75" fill="black">
<rect fill="white" x="14" y="17" width="88" height="75"/>
<path d="M33.9265 90.384C29.9585 90.384 26.5665 89.712 23.7505 88.368C20.9985 86.96 18.8865 84.88 17.4145 82.128C16.0065 79.376 15.3025 76.016 15.3025 72.048V37.488C15.3025 33.328 16.0385 29.84 17.5105 27.024C18.9825 24.144 21.1265 22 23.9425 20.592C26.8225 19.12 30.1825 18.384 34.0225 18.384H48.8065C52.8385 18.384 56.1665 19.152 58.7905 20.688C61.4785 22.16 63.4945 24.336 64.8385 27.216C66.1825 30.032 66.8545 33.456 66.8545 37.488V72.048C66.8545 78 65.2545 82.544 62.0545 85.68C58.9185 88.816 54.5025 90.384 48.8065 90.384H33.9265ZM37.2865 77.616H44.9665C47.5905 77.616 49.5105 76.976 50.7265 75.696C52.0065 74.416 52.6465 72.496 52.6465 69.936V38.832C52.6465 36.016 52.0065 34.032 50.7265 32.88C49.4465 31.728 47.7185 31.152 45.5425 31.152H36.8065C34.4385 31.152 32.6145 31.792 31.3345 33.072C30.1185 34.352 29.5105 36.272 29.5105 38.832V69.84C29.5105 72.528 30.1825 74.512 31.5265 75.792C32.8705 77.008 34.7905 77.616 37.2865 77.616ZM85.8108 90V31.92L73.2348 33.552V24.432L87.3468 18.288H100.019V90H85.8108Z"/>
</mask>
<path d="M23.7505 88.368L23.295 89.2582L23.3073 89.2645L23.3198 89.2705L23.7505 88.368ZM17.4145 82.128L16.5243 82.5835L16.5284 82.5916L16.5327 82.5997L17.4145 82.128ZM17.5105 27.024L18.3968 27.4873L18.4009 27.4791L17.5105 27.024ZM23.9425 20.592L24.3897 21.4865L24.3976 21.4824L23.9425 20.592ZM58.7905 20.688L58.2853 21.551L58.2977 21.5582L58.3102 21.5651L58.7905 20.688ZM64.8385 27.216L63.9323 27.6389L63.936 27.6467L64.8385 27.216ZM62.0545 85.68L61.3545 84.9658L61.3474 84.9729L62.0545 85.68ZM50.7265 75.696L50.0194 74.9889L50.0103 74.998L50.0015 75.0072L50.7265 75.696ZM31.3345 33.072L30.6274 32.3649L30.6183 32.374L30.6095 32.3832L31.3345 33.072ZM31.5265 75.792L30.8368 76.5161L30.8461 76.525L30.8556 76.5335L31.5265 75.792ZM33.9265 89.384C30.0683 89.384 26.8313 88.7303 24.1812 87.4655L23.3198 89.2705C26.3017 90.6937 29.8487 91.384 33.9265 91.384V89.384ZM24.206 87.4778C21.6373 86.1635 19.6731 84.2305 18.2963 81.6563L16.5327 82.5997C18.0999 85.5295 20.3597 87.7565 23.295 89.2582L24.206 87.4778ZM18.3047 81.6725C16.9864 79.0958 16.3025 75.9012 16.3025 72.048H14.3025C14.3025 76.1308 15.0266 79.6562 16.5243 82.5835L18.3047 81.6725ZM16.3025 72.048V37.488H14.3025V72.048H16.3025ZM16.3025 37.488C16.3025 33.4412 17.019 30.123 18.3967 27.4873L16.6243 26.5607C15.058 29.557 14.3025 33.2148 14.3025 37.488H16.3025ZM18.4009 27.4791C19.7787 24.7835 21.7701 22.7963 24.3897 21.4864L23.4953 19.6976C20.4829 21.2037 18.1863 23.5045 16.6201 26.5689L18.4009 27.4791ZM24.3976 21.4824C27.1126 20.0948 30.3113 19.384 34.0225 19.384V17.384C30.0537 17.384 26.5324 18.1452 23.4874 19.7016L24.3976 21.4824ZM34.0225 19.384H48.8065V17.384H34.0225V19.384ZM48.8065 19.384C52.7171 19.384 55.8567 20.1294 58.2853 21.551L59.2957 19.825C56.4763 18.1746 52.9599 17.384 48.8065 17.384V19.384ZM58.3102 21.5651C60.8042 22.9309 62.6748 24.9441 63.9323 27.6389L65.7447 26.7931C64.3142 23.7279 62.1528 21.3891 59.2708 19.8109L58.3102 21.5651ZM63.936 27.6467C65.1999 30.2949 65.8545 33.5631 65.8545 37.488H67.8545C67.8545 33.3489 67.1651 29.7691 65.741 26.7853L63.936 27.6467ZM65.8545 37.488V72.048H67.8545V37.488H65.8545ZM65.8545 72.048C65.8545 77.8229 64.3059 82.0735 61.3546 84.9658L62.7544 86.3942C66.2032 83.0145 67.8545 78.1771 67.8545 72.048H65.8545ZM61.3474 84.9729C58.4482 87.8721 54.3162 89.384 48.8065 89.384V91.384C54.6888 91.384 59.3888 89.7599 62.7616 86.3871L61.3474 84.9729ZM48.8065 89.384H33.9265V91.384H48.8065V89.384ZM37.2865 78.616H44.9665V76.616H37.2865V78.616ZM44.9665 78.616C47.7314 78.616 49.9713 77.9429 51.4515 76.3848L50.0015 75.0072C49.0498 76.0091 47.4496 76.616 44.9665 76.616V78.616ZM51.4336 76.4031C52.9673 74.8694 53.6465 72.6501 53.6465 69.936H51.6465C51.6465 72.3419 51.0457 73.9626 50.0194 74.9889L51.4336 76.4031ZM53.6465 69.936V38.832H51.6465V69.936H53.6465ZM53.6465 38.832C53.6465 35.907 52.9881 33.57 51.3955 32.1367L50.0575 33.6233C51.0249 34.4939 51.6465 36.125 51.6465 38.832H53.6465ZM51.3955 32.1367C49.8872 30.7793 47.8981 30.152 45.5425 30.152V32.152C47.5389 32.152 49.0058 32.6767 50.0575 33.6233L51.3955 32.1367ZM45.5425 30.152H36.8065V32.152H45.5425V30.152ZM36.8065 30.152C34.2583 30.152 32.1475 30.8448 30.6274 32.3649L32.0416 33.7791C33.0815 32.7392 34.6187 32.152 36.8065 32.152V30.152ZM30.6095 32.3832C29.1513 33.9182 28.5105 36.1303 28.5105 38.832H30.5105C30.5105 36.4137 31.0857 34.7858 32.0595 33.7607L30.6095 32.3832ZM28.5105 38.832V69.84H30.5105V38.832H28.5105ZM28.5105 69.84C28.5105 72.6778 29.22 74.9763 30.8368 76.5161L32.2162 75.0679C31.145 74.0477 30.5105 72.3782 30.5105 69.84H28.5105ZM30.8556 76.5335C32.443 77.9697 34.6366 78.616 37.2865 78.616V76.616C34.9444 76.616 33.298 76.0463 32.1974 75.0505L30.8556 76.5335ZM85.8108 90H84.8108V91H85.8108V90ZM85.8108 31.92H86.8108V30.7818L85.6821 30.9283L85.8108 31.92ZM73.2348 33.552H72.2348V34.6902L73.3634 34.5437L73.2348 33.552ZM73.2348 24.432L72.8356 23.5151L72.2348 23.7767V24.432H73.2348ZM87.3467 18.288V17.288H87.1385L86.9476 17.3711L87.3467 18.288ZM100.019 18.288H101.019V17.288H100.019V18.288ZM100.019 90V91H101.019V90H100.019ZM86.8108 90V31.92H84.8108V90H86.8108ZM85.6821 30.9283L73.1061 32.5603L73.3634 34.5437L85.9394 32.9117L85.6821 30.9283ZM74.2347 33.552V24.432H72.2348V33.552H74.2347ZM73.6339 25.3489L87.7459 19.2049L86.9476 17.3711L72.8356 23.5151L73.6339 25.3489ZM87.3467 19.288H100.019V17.288H87.3467V19.288ZM99.0188 18.288V90H101.019V18.288H99.0188ZM100.019 89H85.8108V91H100.019V89Z" fill="white" fill-opacity="0.3" mask="url(#path-1-outside-1_874_9132)"/>
<path d="M23.9265 97.384C19.9585 97.384 16.5665 96.712 13.7505 95.368C10.9985 93.96 8.8865 91.88 7.4145 89.128C6.0065 86.376 5.3025 83.016 5.3025 79.048V44.488C5.3025 40.328 6.0385 36.84 7.5105 34.024C8.9825 31.144 11.1265 29 13.9425 27.592C16.8225 26.12 20.1825 25.384 24.0225 25.384H38.8065C42.8385 25.384 46.1665 26.152 48.7905 27.688C51.4785 29.16 53.4945 31.336 54.8385 34.216C56.1825 37.032 56.8545 40.456 56.8545 44.488V79.048C56.8545 85 55.2545 89.544 52.0545 92.68C48.9185 95.816 44.5025 97.384 38.8065 97.384H23.9265ZM27.2865 84.616H34.9665C37.5905 84.616 39.5105 83.976 40.7265 82.696C42.0065 81.416 42.6465 79.496 42.6465 76.936V45.832C42.6465 43.016 42.0065 41.032 40.7265 39.88C39.4465 38.728 37.7185 38.152 35.5425 38.152H26.8065C24.4385 38.152 22.6145 38.792 21.3345 40.072C20.1185 41.352 19.5105 43.272 19.5105 45.832V76.84C19.5105 79.528 20.1825 81.512 21.5265 82.792C22.8705 84.008 24.7905 84.616 27.2865 84.616ZM75.8108 97V38.92L63.2348 40.552V31.432L77.3468 25.288H90.0188V97H75.8108Z" fill="white"/>
</svg>
