<svg width="31" height="33" viewBox="0 0 31 33" fill="none" xmlns="http://www.w3.org/2000/svg">
<mask id="path-1-outside-1_911_9387" maskUnits="userSpaceOnUse" x="6.93506" y="4.6001" width="24" height="21" fill="black">
<rect fill="white" x="6.93506" y="4.6001" width="24" height="21"/>
<path d="M12.9167 23.6961C11.9247 23.6961 11.0767 23.5281 10.3727 23.1921C9.68468 22.8401 9.15668 22.3201 8.78868 21.6321C8.43668 20.9441 8.26068 20.1041 8.26068 19.1121V10.4721C8.26068 9.4321 8.44468 8.5601 8.81268 7.8561C9.18068 7.1361 9.71668 6.6001 10.4207 6.2481C11.1407 5.8801 11.9807 5.6961 12.9407 5.6961H16.6367C17.6447 5.6961 18.4767 5.8881 19.1327 6.2721C19.8047 6.6401 20.3087 7.1841 20.6447 7.9041C20.9807 8.6081 21.1487 9.4641 21.1487 10.4721V19.1121C21.1487 20.6001 20.7487 21.7361 19.9487 22.5201C19.1647 23.3041 18.0607 23.6961 16.6367 23.6961H12.9167ZM13.7567 20.5041H15.6767C16.3327 20.5041 16.8127 20.3441 17.1167 20.0241C17.4367 19.7041 17.5967 19.2241 17.5967 18.5841V10.8081C17.5967 10.1041 17.4367 9.6081 17.1167 9.3201C16.7967 9.0321 16.3647 8.8881 15.8207 8.8881H13.6367C13.0447 8.8881 12.5887 9.0481 12.2687 9.3681C11.9647 9.6881 11.8127 10.1681 11.8127 10.8081V18.5601C11.8127 19.2321 11.9807 19.7281 12.3167 20.0481C12.6527 20.3521 13.1327 20.5041 13.7567 20.5041ZM25.8877 23.6001V9.0801L22.7437 9.4881V7.2081L26.2717 5.6721H29.4397V23.6001H25.8877Z"/>
</mask>
<path d="M10.3727 23.1921L9.91721 24.0823L9.9295 24.0886L9.94195 24.0946L10.3727 23.1921ZM8.78868 21.6321L7.89844 22.0876L7.90259 22.0957L7.9069 22.1038L8.78868 21.6321ZM8.81268 7.8561L9.69895 8.31937L9.70312 8.31121L8.81268 7.8561ZM10.4207 6.2481L10.8679 7.14256L10.8758 7.13853L10.4207 6.2481ZM19.1327 6.2721L18.6275 7.13511L18.6398 7.14233L18.6524 7.14919L19.1327 6.2721ZM20.6447 7.9041L19.7385 8.327L19.7422 8.33483L20.6447 7.9041ZM19.9487 22.5201L19.2487 21.8058L19.2416 21.813L19.9487 22.5201ZM17.1167 20.0241L16.4096 19.317L16.4005 19.3261L16.3917 19.3353L17.1167 20.0241ZM12.2687 9.3681L11.5616 8.66099L11.5525 8.67005L11.5437 8.67935L12.2687 9.3681ZM12.3167 20.0481L11.627 20.7722L11.6363 20.7811L11.6458 20.7896L12.3167 20.0481ZM12.9167 22.6961C12.0345 22.6961 11.3415 22.5464 10.8034 22.2896L9.94195 24.0946C10.8119 24.5098 11.8148 24.6961 12.9167 24.6961V22.6961ZM10.8282 22.3018C10.3235 22.0436 9.94333 21.6706 9.67047 21.1604L7.9069 22.1038C8.37004 22.9696 9.04591 23.6366 9.91721 24.0823L10.8282 22.3018ZM9.67893 21.1766C9.41659 20.6639 9.26068 19.9893 9.26068 19.1121H7.26068C7.26068 20.2189 7.45677 21.2243 7.89844 22.0876L9.67893 21.1766ZM9.26068 19.1121V10.4721H7.26068V19.1121H9.26068ZM9.26068 10.4721C9.26068 9.54529 9.42515 8.84306 9.69891 8.31935L7.92646 7.39284C7.46421 8.27714 7.26068 9.31891 7.26068 10.4721H9.26068ZM9.70312 8.31121C9.97687 7.77561 10.3602 7.39636 10.8679 7.14252L9.97347 5.35367C9.07313 5.80384 8.3845 6.49658 7.92225 7.40099L9.70312 8.31121ZM10.8758 7.13853C11.4308 6.85486 12.1095 6.6961 12.9407 6.6961V4.6961C11.8519 4.6961 10.8506 4.90534 9.96557 5.35766L10.8758 7.13853ZM12.9407 6.6961H16.6367V4.6961H12.9407V6.6961ZM16.6367 6.6961C17.5233 6.6961 18.1669 6.86547 18.6275 7.13511L19.6379 5.40908C18.7865 4.91072 17.7661 4.6961 16.6367 4.6961V6.6961ZM18.6524 7.14919C19.1304 7.41099 19.4889 7.79221 19.7385 8.32698L21.5509 7.48121C21.1284 6.57599 20.4789 5.8692 19.613 5.395L18.6524 7.14919ZM19.7422 8.33483C19.9981 8.87099 20.1487 9.5712 20.1487 10.4721H22.1487C22.1487 9.357 21.9633 8.34521 21.5472 7.47337L19.7422 8.33483ZM20.1487 10.4721V19.1121H22.1487V10.4721H20.1487ZM20.1487 19.1121C20.1487 20.423 19.8 21.2656 19.2488 21.8059L20.6486 23.2343C21.6973 22.2066 22.1487 20.7772 22.1487 19.1121H20.1487ZM19.2416 21.813C18.6944 22.3602 17.8744 22.6961 16.6367 22.6961V24.6961C18.247 24.6961 19.635 24.248 20.6558 23.2272L19.2416 21.813ZM16.6367 22.6961H12.9167V24.6961H16.6367V22.6961ZM13.7567 21.5041H15.6767V19.5041H13.7567V21.5041ZM15.6767 21.5041C16.4735 21.5041 17.2734 21.311 17.8417 20.7128L16.3917 19.3353C16.3519 19.3772 16.1918 19.5041 15.6767 19.5041V21.5041ZM17.8238 20.7312C18.3975 20.1575 18.5967 19.3782 18.5967 18.5841H16.5967C16.5967 19.07 16.4759 19.2507 16.4096 19.317L17.8238 20.7312ZM18.5967 18.5841V10.8081H16.5967V18.5841H18.5967ZM18.5967 10.8081C18.5967 9.99514 18.4183 9.14615 17.7856 8.5768L16.4477 10.0634C16.4551 10.07 16.5967 10.2131 16.5967 10.8081H18.5967ZM17.7856 8.5768C17.2374 8.08337 16.5443 7.8881 15.8207 7.8881V9.8881C16.1851 9.8881 16.356 9.98082 16.4477 10.0634L17.7856 8.5768ZM15.8207 7.8881H13.6367V9.8881H15.8207V7.8881ZM13.6367 7.8881C12.8645 7.8881 12.1217 8.10087 11.5616 8.66099L12.9758 10.0752C13.0557 9.99533 13.2249 9.8881 13.6367 9.8881V7.8881ZM11.5437 8.67935C10.9974 9.25434 10.8127 10.0264 10.8127 10.8081H12.8127C12.8127 10.3098 12.9319 10.1219 12.9937 10.0568L11.5437 8.67935ZM10.8127 10.8081V18.5601H12.8127V10.8081H10.8127ZM10.8127 18.5601C10.8127 19.3819 11.0182 20.1924 11.627 20.7722L13.0063 19.324C12.9432 19.2638 12.8127 19.0823 12.8127 18.5601H10.8127ZM11.6458 20.7896C12.2251 21.3138 12.9788 21.5041 13.7567 21.5041V19.5041C13.2866 19.5041 13.0802 19.3904 12.9876 19.3066L11.6458 20.7896ZM25.8877 23.6001H24.8877V24.6001H25.8877V23.6001ZM25.8877 9.0801H26.8877V7.94194L25.7591 8.08841L25.8877 9.0801ZM22.7437 9.4881H21.7437V10.6263L22.8724 10.4798L22.7437 9.4881ZM22.7437 7.2081L22.3446 6.29123L21.7437 6.55281V7.2081H22.7437ZM26.2717 5.6721V4.6721H26.0635L25.8726 4.75523L26.2717 5.6721ZM29.4397 5.6721H30.4397V4.6721H29.4397V5.6721ZM29.4397 23.6001V24.6001H30.4397V23.6001H29.4397ZM26.8877 23.6001V9.0801H24.8877V23.6001H26.8877ZM25.7591 8.08841L22.6151 8.49641L22.8724 10.4798L26.0164 10.0718L25.7591 8.08841ZM23.7437 9.4881V7.2081H21.7437V9.4881H23.7437ZM23.1429 8.12497L26.6709 6.58897L25.8726 4.75523L22.3446 6.29123L23.1429 8.12497ZM26.2717 6.6721H29.4397V4.6721H26.2717V6.6721ZM28.4397 5.6721V23.6001H30.4397V5.6721H28.4397ZM29.4397 22.6001H25.8877V24.6001H29.4397V22.6001Z" fill="white" fill-opacity="0.3" mask="url(#path-1-outside-1_911_9387)"/>
<path d="M6.91668 26.6961C5.92468 26.6961 5.07668 26.5281 4.37268 26.1921C3.68468 25.8401 3.15668 25.3201 2.78868 24.6321C2.43668 23.9441 2.26068 23.1041 2.26068 22.1121V13.4721C2.26068 12.4321 2.44468 11.5601 2.81268 10.8561C3.18068 10.1361 3.71668 9.6001 4.42068 9.2481C5.14068 8.8801 5.98068 8.6961 6.94068 8.6961H10.6367C11.6447 8.6961 12.4767 8.8881 13.1327 9.2721C13.8047 9.6401 14.3087 10.1841 14.6447 10.9041C14.9807 11.6081 15.1487 12.4641 15.1487 13.4721V22.1121C15.1487 23.6001 14.7487 24.7361 13.9487 25.5201C13.1647 26.3041 12.0607 26.6961 10.6367 26.6961H6.91668ZM7.75668 23.5041H9.67668C10.3327 23.5041 10.8127 23.3441 11.1167 23.0241C11.4367 22.7041 11.5967 22.2241 11.5967 21.5841V13.8081C11.5967 13.1041 11.4367 12.6081 11.1167 12.3201C10.7967 12.0321 10.3647 11.8881 9.82068 11.8881H7.63668C7.04468 11.8881 6.58868 12.0481 6.26868 12.3681C5.96468 12.6881 5.81268 13.1681 5.81268 13.8081V21.5601C5.81268 22.2321 5.98068 22.7281 6.31668 23.0481C6.65268 23.3521 7.13268 23.5041 7.75668 23.5041ZM19.8877 26.6001V12.0801L16.7437 12.4881V10.2081L20.2717 8.6721H23.4397V26.6001H19.8877Z" fill="white"/>
</svg>
