<svg width="127" height="122" viewBox="0 0 127 122" fill="none" xmlns="http://www.w3.org/2000/svg">
<mask id="path-1-outside-1_874_9135" maskUnits="userSpaceOnUse" x="14" y="17" width="111" height="75" fill="black">
<rect fill="white" x="14" y="17" width="111" height="75"/>
<path d="M34.1609 90.384C30.1929 90.384 26.8009 89.712 23.9849 88.368C21.2329 86.96 19.1209 84.88 17.6489 82.128C16.2409 79.376 15.5369 76.016 15.5369 72.048V37.488C15.5369 33.328 16.2729 29.84 17.7449 27.024C19.2169 24.144 21.3609 22 24.1769 20.592C27.0569 19.12 30.4169 18.384 34.2569 18.384H49.0409C53.0729 18.384 56.4009 19.152 59.0249 20.688C61.7129 22.16 63.7289 24.336 65.0729 27.216C66.4169 30.032 67.0889 33.456 67.0889 37.488V72.048C67.0889 78 65.4889 82.544 62.2889 85.68C59.1529 88.816 54.7369 90.384 49.0409 90.384H34.1609ZM37.5209 77.616H45.2009C47.8249 77.616 49.7449 76.976 50.9609 75.696C52.2409 74.416 52.8809 72.496 52.8809 69.936V38.832C52.8809 36.016 52.2409 34.032 50.9609 32.88C49.6809 31.728 47.9529 31.152 45.7769 31.152H37.0409C34.6729 31.152 32.8489 31.792 31.5689 33.072C30.3529 34.352 29.7449 36.272 29.7449 38.832V69.84C29.7449 72.528 30.4169 74.512 31.7609 75.792C33.1049 77.008 35.0249 77.616 37.5209 77.616ZM74.9091 90V78.576L98.6211 55.056C100.541 53.2 102.109 51.472 103.325 49.872C104.541 48.272 105.437 46.704 106.013 45.168C106.653 43.568 106.973 41.872 106.973 40.08C106.973 38.352 106.621 36.88 105.917 35.664C105.277 34.384 104.189 33.424 102.653 32.784C101.181 32.144 99.1331 31.824 96.5091 31.824H76.5411V20.688C79.6131 20.112 83.0051 19.6 86.7171 19.152C90.4931 18.64 94.6851 18.384 99.2931 18.384C104.861 18.384 109.213 19.152 112.349 20.688C115.549 22.224 117.821 24.432 119.165 27.312C120.509 30.192 121.181 33.68 121.181 37.776C121.181 40.976 120.733 43.888 119.837 46.512C119.005 49.136 117.757 51.664 116.093 54.096C114.429 56.464 112.317 58.864 109.757 61.296L93.8211 77.136H123.389V90H74.9091Z"/>
</mask>
<path d="M23.9849 88.368L23.5294 89.2582L23.5417 89.2645L23.5541 89.2705L23.9849 88.368ZM17.6489 82.128L16.7586 82.5835L16.7628 82.5916L16.7671 82.5997L17.6489 82.128ZM17.7449 27.024L18.6311 27.4873L18.6353 27.4791L17.7449 27.024ZM24.1769 20.592L24.6241 21.4865L24.632 21.4824L24.1769 20.592ZM59.0249 20.688L58.5197 21.551L58.532 21.5582L58.5446 21.5651L59.0249 20.688ZM65.0729 27.216L64.1667 27.6389L64.1704 27.6467L65.0729 27.216ZM62.2889 85.68L61.5889 84.9658L61.5818 84.9729L62.2889 85.68ZM50.9609 75.696L50.2538 74.9889L50.2447 74.998L50.2359 75.0072L50.9609 75.696ZM31.5689 33.072L30.8618 32.3649L30.8527 32.374L30.8439 32.3832L31.5689 33.072ZM31.7609 75.792L31.0712 76.5161L31.0805 76.525L31.09 76.5335L31.7609 75.792ZM34.1609 89.384C30.3027 89.384 27.0657 88.7303 24.4156 87.4655L23.5541 89.2705C26.5361 90.6937 30.083 91.384 34.1609 91.384V89.384ZM24.4404 87.4778C21.8716 86.1635 19.9075 84.2305 18.5307 81.6563L16.7671 82.5997C18.3342 85.5295 20.5941 87.7565 23.5294 89.2582L24.4404 87.4778ZM18.5391 81.6725C17.2208 79.0958 16.5369 75.9012 16.5369 72.048H14.5369C14.5369 76.1308 15.261 79.6562 16.7586 82.5835L18.5391 81.6725ZM16.5369 72.048V37.488H14.5369V72.048H16.5369ZM16.5369 37.488C16.5369 33.4412 17.2533 30.123 18.6311 27.4873L16.8586 26.5607C15.2924 29.557 14.5369 33.2148 14.5369 37.488H16.5369ZM18.6353 27.4791C20.0131 24.7835 22.0044 22.7963 24.6241 21.4864L23.7297 19.6976C20.7173 21.2037 18.4207 23.5045 16.8544 26.5689L18.6353 27.4791ZM24.632 21.4824C27.347 20.0948 30.5456 19.384 34.2569 19.384V17.384C30.2881 17.384 26.7667 18.1452 23.7218 19.7016L24.632 21.4824ZM34.2569 19.384H49.0409V17.384H34.2569V19.384ZM49.0409 19.384C52.9515 19.384 56.0911 20.1294 58.5197 21.551L59.5301 19.825C56.7107 18.1746 53.1943 17.384 49.0409 17.384V19.384ZM58.5446 21.5651C61.0386 22.9309 62.9091 24.9441 64.1667 27.6389L65.9791 26.7931C64.5486 23.7279 62.3871 21.3891 59.5052 19.8109L58.5446 21.5651ZM64.1704 27.6467C65.4343 30.2949 66.0889 33.5631 66.0889 37.488H68.0889C68.0889 33.3489 67.3995 29.7691 65.9754 26.7853L64.1704 27.6467ZM66.0889 37.488V72.048H68.0889V37.488H66.0889ZM66.0889 72.048C66.0889 77.8229 64.5402 82.0735 61.589 84.9658L62.9888 86.3942C66.4375 83.0145 68.0889 78.1771 68.0889 72.048H66.0889ZM61.5818 84.9729C58.6826 87.8721 54.5506 89.384 49.0409 89.384V91.384C54.9232 91.384 59.6232 89.7599 62.996 86.3871L61.5818 84.9729ZM49.0409 89.384H34.1609V91.384H49.0409V89.384ZM37.5209 78.616H45.2009V76.616H37.5209V78.616ZM45.2009 78.616C47.9657 78.616 50.2056 77.9429 51.6859 76.3848L50.2359 75.0072C49.2841 76.0091 47.684 76.616 45.2009 76.616V78.616ZM51.668 76.4031C53.2017 74.8694 53.8809 72.6501 53.8809 69.936H51.8809C51.8809 72.3419 51.2801 73.9626 50.2538 74.9889L51.668 76.4031ZM53.8809 69.936V38.832H51.8809V69.936H53.8809ZM53.8809 38.832C53.8809 35.907 53.2224 33.57 51.6298 32.1367L50.2919 33.6233C51.2593 34.4939 51.8809 36.125 51.8809 38.832H53.8809ZM51.6298 32.1367C50.1216 30.7793 48.1325 30.152 45.7769 30.152V32.152C47.7733 32.152 49.2402 32.6767 50.2919 33.6233L51.6298 32.1367ZM45.7769 30.152H37.0409V32.152H45.7769V30.152ZM37.0409 30.152C34.4927 30.152 32.3819 30.8448 30.8618 32.3649L32.276 33.7791C33.3159 32.7392 34.8531 32.152 37.0409 32.152V30.152ZM30.8439 32.3832C29.3856 33.9182 28.7449 36.1303 28.7449 38.832H30.7449C30.7449 36.4137 31.3201 34.7858 32.2939 33.7607L30.8439 32.3832ZM28.7449 38.832V69.84H30.7449V38.832H28.7449ZM28.7449 69.84C28.7449 72.6778 29.4544 74.9763 31.0712 76.5161L32.4505 75.0679C31.3794 74.0477 30.7449 72.3782 30.7449 69.84H28.7449ZM31.09 76.5335C32.6773 77.9697 34.871 78.616 37.5209 78.616V76.616C35.1787 76.616 33.5324 76.0463 32.4318 75.0505L31.09 76.5335ZM74.9091 90H73.9091V91H74.9091V90ZM74.9091 78.576L74.2049 77.866L73.9091 78.1594V78.576H74.9091ZM98.6211 55.056L97.926 54.3369L97.9169 54.346L98.6211 55.056ZM103.325 49.872L102.529 49.2669L103.325 49.872ZM106.013 45.168L105.085 44.7966L105.081 44.8067L105.077 44.8169L106.013 45.168ZM105.917 35.664L105.023 36.1112L105.036 36.1386L105.052 36.165L105.917 35.664ZM102.653 32.784L102.254 33.7011L102.261 33.7041L102.269 33.7071L102.653 32.784ZM76.5411 31.824H75.5411V32.824H76.5411V31.824ZM76.5411 20.688L76.3568 19.7051L75.5411 19.8581V20.688H76.5411ZM86.7171 19.152L86.8369 20.1448L86.8442 20.1439L86.8515 20.1429L86.7171 19.152ZM112.349 20.688L111.909 21.5861L111.916 21.5895L112.349 20.688ZM119.165 27.312L120.071 26.8891V26.8891L119.165 27.312ZM119.837 46.512L118.891 46.1889L118.887 46.1993L118.884 46.2098L119.837 46.512ZM116.093 54.096L116.911 54.671L116.918 54.6607L116.093 54.096ZM109.757 61.296L109.068 60.571L109.06 60.5788L109.052 60.5868L109.757 61.296ZM93.8211 77.136L93.1162 76.4268L91.3966 78.136H93.8211V77.136ZM123.389 77.136H124.389V76.136H123.389V77.136ZM123.389 90V91H124.389V90H123.389ZM75.9091 90V78.576H73.9091V90H75.9091ZM75.6133 79.286L99.3254 55.766L97.9169 54.346L74.2049 77.866L75.6133 79.286ZM99.3161 55.775C101.262 53.8944 102.866 52.1282 104.121 50.4771L102.529 49.2669C101.352 50.8158 99.8206 52.5056 97.9261 54.337L99.3161 55.775ZM104.121 50.4771C105.383 48.8164 106.333 47.1639 106.949 45.5191L105.077 44.8169C104.542 46.2441 103.699 47.7276 102.529 49.2669L104.121 50.4771ZM106.942 45.5394C107.631 43.8166 107.973 41.9941 107.973 40.08H105.973C105.973 41.7499 105.676 43.3194 105.085 44.7966L106.942 45.5394ZM107.973 40.08C107.973 38.2162 107.593 36.5626 106.783 35.163L105.052 36.165C105.649 37.1974 105.973 38.4878 105.973 40.08H107.973ZM106.812 35.2168C106.047 33.6879 104.757 32.5773 103.038 31.8609L102.269 33.7071C103.621 34.2707 104.507 35.0801 105.023 36.1112L106.812 35.2168ZM103.052 31.8669C101.399 31.1483 99.194 30.824 96.5091 30.824V32.824C99.0723 32.824 100.963 33.1397 102.254 33.7011L103.052 31.8669ZM96.5091 30.824H76.5411V32.824H96.5091V30.824ZM77.5411 31.824V20.688H75.5411V31.824H77.5411ZM76.7254 21.6709C79.7724 21.0996 83.1425 20.5907 86.8369 20.1448L86.5973 18.1592C82.8678 18.6093 79.4539 19.1244 76.3568 19.7051L76.7254 21.6709ZM86.8515 20.1429C90.5749 19.6381 94.7211 19.384 99.2931 19.384V17.384C94.6491 17.384 90.4114 17.6419 86.5828 18.1611L86.8515 20.1429ZM99.2931 19.384C104.79 19.384 108.968 20.1454 111.909 21.5861L112.789 19.7899C109.458 18.1586 104.933 17.384 99.2931 17.384V19.384ZM111.916 21.5895C114.934 23.0379 117.024 25.089 118.259 27.7349L120.071 26.8891C118.618 23.775 116.164 21.4101 112.782 19.7865L111.916 21.5895ZM118.259 27.7349C119.526 30.45 120.181 33.7855 120.181 37.776H122.181C122.181 33.5745 121.492 29.934 120.071 26.8891L118.259 27.7349ZM120.181 37.776C120.181 40.8827 119.746 43.6835 118.891 46.1889L120.783 46.8351C121.72 44.0925 122.181 41.0693 122.181 37.776H120.181ZM118.884 46.2098C118.083 48.7341 116.88 51.1744 115.268 53.5313L116.918 54.6607C118.634 52.1536 119.927 49.5379 120.79 46.8142L118.884 46.2098ZM115.275 53.5211C113.656 55.8246 111.59 58.175 109.068 60.571L110.446 62.021C113.044 59.5529 115.202 57.1034 116.911 54.6709L115.275 53.5211ZM109.052 60.5868L93.1162 76.4268L94.5261 77.8452L110.462 62.0052L109.052 60.5868ZM93.8211 78.136H123.389V76.136H93.8211V78.136ZM122.389 77.136V90H124.389V77.136H122.389ZM123.389 89H74.9091V91H123.389V89Z" fill="#341A41" fill-opacity="0.3" mask="url(#path-1-outside-1_874_9135)"/>
<path d="M24.1609 97.384C20.1929 97.384 16.8009 96.712 13.9849 95.368C11.2329 93.96 9.12087 91.88 7.64887 89.128C6.24087 86.376 5.53687 83.016 5.53687 79.048V44.488C5.53687 40.328 6.27287 36.84 7.74487 34.024C9.21687 31.144 11.3609 29 14.1769 27.592C17.0569 26.12 20.4169 25.384 24.2569 25.384H39.0409C43.0729 25.384 46.4009 26.152 49.0249 27.688C51.7129 29.16 53.7289 31.336 55.0729 34.216C56.4169 37.032 57.0889 40.456 57.0889 44.488V79.048C57.0889 85 55.4889 89.544 52.2889 92.68C49.1529 95.816 44.7369 97.384 39.0409 97.384H24.1609ZM27.5209 84.616H35.2009C37.8249 84.616 39.7449 83.976 40.9609 82.696C42.2409 81.416 42.8809 79.496 42.8809 76.936V45.832C42.8809 43.016 42.2409 41.032 40.9609 39.88C39.6809 38.728 37.9529 38.152 35.7769 38.152H27.0409C24.6729 38.152 22.8489 38.792 21.5689 40.072C20.3529 41.352 19.7449 43.272 19.7449 45.832V76.84C19.7449 79.528 20.4169 81.512 21.7609 82.792C23.1049 84.008 25.0249 84.616 27.5209 84.616ZM64.9091 97V85.576L88.6211 62.056C90.5411 60.2 92.1091 58.472 93.3251 56.872C94.5411 55.272 95.4371 53.704 96.0131 52.168C96.6531 50.568 96.9731 48.872 96.9731 47.08C96.9731 45.352 96.6211 43.88 95.9171 42.664C95.2771 41.384 94.1891 40.424 92.6531 39.784C91.1811 39.144 89.1331 38.824 86.5091 38.824H66.5411V27.688C69.6131 27.112 73.0051 26.6 76.7171 26.152C80.4931 25.64 84.6851 25.384 89.2931 25.384C94.8611 25.384 99.2131 26.152 102.349 27.688C105.549 29.224 107.821 31.432 109.165 34.312C110.509 37.192 111.181 40.68 111.181 44.776C111.181 47.976 110.733 50.888 109.837 53.512C109.005 56.136 107.757 58.664 106.093 61.096C104.429 63.464 102.317 65.864 99.7571 68.296L83.8211 84.136H113.389V97H64.9091Z" fill="#341A41"/>
</svg>
