<svg width="37" height="33" viewBox="0 0 37 33" fill="none" xmlns="http://www.w3.org/2000/svg">
<mask id="path-1-outside-1_911_9397" maskUnits="userSpaceOnUse" x="6.93506" y="4.6001" width="30" height="21" fill="black">
<rect fill="white" x="6.93506" y="4.6001" width="30" height="21"/>
<path d="M13.3503 23.6961C12.3583 23.6961 11.5103 23.5281 10.8063 23.1921C10.1183 22.8401 9.59028 22.3201 9.22228 21.6321C8.87028 20.9441 8.69428 20.1041 8.69428 19.1121V10.4721C8.69428 9.4321 8.87828 8.5601 9.24628 7.8561C9.61428 7.1361 10.1503 6.6001 10.8543 6.2481C11.5743 5.8801 12.4143 5.6961 13.3743 5.6961H17.0703C18.0783 5.6961 18.9103 5.8881 19.5663 6.2721C20.2383 6.6401 20.7423 7.1841 21.0783 7.9041C21.4143 8.6081 21.5823 9.4641 21.5823 10.4721V19.1121C21.5823 20.6001 21.1823 21.7361 20.3823 22.5201C19.5983 23.3041 18.4943 23.6961 17.0703 23.6961H13.3503ZM14.1903 20.5041H16.1103C16.7663 20.5041 17.2463 20.3441 17.5503 20.0241C17.8703 19.7041 18.0303 19.2241 18.0303 18.5841V10.8081C18.0303 10.1041 17.8703 9.6081 17.5503 9.3201C17.2303 9.0321 16.7983 8.8881 16.2543 8.8881H14.0703C13.4783 8.8881 13.0223 9.0481 12.7023 9.3681C12.3983 9.6881 12.2463 10.1681 12.2463 10.8081V18.5601C12.2463 19.2321 12.4143 19.7281 12.7503 20.0481C13.0863 20.3521 13.5663 20.5041 14.1903 20.5041ZM23.5373 23.6001V20.7441L29.4653 14.8641C29.9453 14.4001 30.3373 13.9681 30.6413 13.5681C30.9453 13.1681 31.1693 12.7761 31.3133 12.3921C31.4733 11.9921 31.5533 11.5681 31.5533 11.1201C31.5533 10.6881 31.4653 10.3201 31.2893 10.0161C31.1293 9.6961 30.8573 9.4561 30.4733 9.2961C30.1053 9.1361 29.5933 9.0561 28.9373 9.0561H23.9453V6.2721C24.7133 6.1281 25.5613 6.0001 26.4893 5.8881C27.4333 5.7601 28.4813 5.6961 29.6333 5.6961C31.0253 5.6961 32.1133 5.8881 32.8973 6.2721C33.6973 6.6561 34.2653 7.2081 34.6013 7.9281C34.9373 8.6481 35.1053 9.5201 35.1053 10.5441C35.1053 11.3441 34.9933 12.0721 34.7693 12.7281C34.5613 13.3841 34.2493 14.0161 33.8333 14.6241C33.4173 15.2161 32.8893 15.8161 32.2493 16.4241L28.2653 20.3841H35.6573V23.6001H23.5373Z"/>
</mask>
<path d="M10.8063 23.1921L10.3508 24.0823L10.3631 24.0886L10.3755 24.0946L10.8063 23.1921ZM9.22228 21.6321L8.33203 22.0876L8.33619 22.0957L8.34049 22.1038L9.22228 21.6321ZM9.24628 7.8561L10.1325 8.31937L10.1367 8.31121L9.24628 7.8561ZM10.8543 6.2481L11.3015 7.14256L11.3094 7.13853L10.8543 6.2481ZM19.5663 6.2721L19.0611 7.13511L19.0734 7.14233L19.086 7.14919L19.5663 6.2721ZM21.0783 7.9041L20.1721 8.327L20.1758 8.33483L21.0783 7.9041ZM20.3823 22.5201L19.6823 21.8058L19.6752 21.813L20.3823 22.5201ZM17.5503 20.0241L16.8432 19.317L16.8341 19.3261L16.8253 19.3353L17.5503 20.0241ZM12.7023 9.3681L11.9952 8.66099L11.9861 8.67005L11.9773 8.67935L12.7023 9.3681ZM12.7503 20.0481L12.0606 20.7722L12.0699 20.7811L12.0794 20.7896L12.7503 20.0481ZM13.3503 22.6961C12.4681 22.6961 11.7751 22.5464 11.237 22.2896L10.3755 24.0946C11.2455 24.5098 12.2484 24.6961 13.3503 24.6961V22.6961ZM11.2618 22.3018C10.757 22.0436 10.3769 21.6706 10.1041 21.1604L8.34049 22.1038C8.80363 22.9696 9.47951 23.6366 10.3508 24.0823L11.2618 22.3018ZM10.1125 21.1766C9.85019 20.6639 9.69428 19.9893 9.69428 19.1121H7.69428C7.69428 20.2189 7.89037 21.2243 8.33203 22.0876L10.1125 21.1766ZM9.69428 19.1121V10.4721H7.69428V19.1121H9.69428ZM9.69428 10.4721C9.69428 9.54529 9.85875 8.84306 10.1325 8.31935L8.36005 7.39284C7.89781 8.27714 7.69428 9.31891 7.69428 10.4721H9.69428ZM10.1367 8.31121C10.4105 7.77561 10.7938 7.39636 11.3015 7.14252L10.4071 5.35367C9.50673 5.80384 8.81809 6.49658 8.35584 7.40099L10.1367 8.31121ZM11.3094 7.13853C11.8644 6.85486 12.543 6.6961 13.3743 6.6961V4.6961C12.2855 4.6961 11.2842 4.90534 10.3992 5.35766L11.3094 7.13853ZM13.3743 6.6961H17.0703V4.6961H13.3743V6.6961ZM17.0703 6.6961C17.9569 6.6961 18.6005 6.86547 19.0611 7.13511L20.0715 5.40908C19.2201 4.91072 18.1997 4.6961 17.0703 4.6961V6.6961ZM19.086 7.14919C19.564 7.41099 19.9225 7.79221 20.1721 8.32698L21.9845 7.48121C21.562 6.57599 20.9125 5.8692 20.0466 5.395L19.086 7.14919ZM20.1758 8.33483C20.4317 8.87099 20.5823 9.5712 20.5823 10.4721H22.5823C22.5823 9.357 22.3969 8.34521 21.9808 7.47337L20.1758 8.33483ZM20.5823 10.4721V19.1121H22.5823V10.4721H20.5823ZM20.5823 19.1121C20.5823 20.423 20.2336 21.2656 19.6823 21.8059L21.0822 23.2343C22.1309 22.2066 22.5823 20.7772 22.5823 19.1121H20.5823ZM19.6752 21.813C19.128 22.3602 18.308 22.6961 17.0703 22.6961V24.6961C18.6806 24.6961 20.0686 24.248 21.0894 23.2272L19.6752 21.813ZM17.0703 22.6961H13.3503V24.6961H17.0703V22.6961ZM14.1903 21.5041H16.1103V19.5041H14.1903V21.5041ZM16.1103 21.5041C16.9071 21.5041 17.707 21.311 18.2753 20.7128L16.8253 19.3353C16.7855 19.3772 16.6254 19.5041 16.1103 19.5041V21.5041ZM18.2574 20.7312C18.8311 20.1575 19.0303 19.3782 19.0303 18.5841H17.0303C17.0303 19.07 16.9095 19.2507 16.8432 19.317L18.2574 20.7312ZM19.0303 18.5841V10.8081H17.0303V18.5841H19.0303ZM19.0303 10.8081C19.0303 9.99514 18.8518 9.14615 18.2192 8.5768L16.8813 10.0634C16.8887 10.07 17.0303 10.2131 17.0303 10.8081H19.0303ZM18.2192 8.5768C17.671 8.08337 16.9779 7.8881 16.2543 7.8881V9.8881C16.6187 9.8881 16.7896 9.98082 16.8813 10.0634L18.2192 8.5768ZM16.2543 7.8881H14.0703V9.8881H16.2543V7.8881ZM14.0703 7.8881C13.2981 7.8881 12.5553 8.10087 11.9952 8.66099L13.4094 10.0752C13.4893 9.99533 13.6585 9.8881 14.0703 9.8881V7.8881ZM11.9773 8.67935C11.431 9.25434 11.2463 10.0264 11.2463 10.8081H13.2463C13.2463 10.3098 13.3655 10.1219 13.4273 10.0568L11.9773 8.67935ZM11.2463 10.8081V18.5601H13.2463V10.8081H11.2463ZM11.2463 18.5601C11.2463 19.3819 11.4518 20.1924 12.0606 20.7722L13.4399 19.324C13.3768 19.2638 13.2463 19.0823 13.2463 18.5601H11.2463ZM12.0794 20.7896C12.6587 21.3138 13.4124 21.5041 14.1903 21.5041V19.5041C13.7201 19.5041 13.5138 19.3904 13.4212 19.3066L12.0794 20.7896ZM23.5373 23.6001H22.5373V24.6001H23.5373V23.6001ZM23.5373 20.7441L22.8331 20.0341L22.5373 20.3275V20.7441H23.5373ZM29.4653 14.8641L28.7703 14.145L28.7611 14.1541L29.4653 14.8641ZM30.6413 13.5681L29.8452 12.963V12.963L30.6413 13.5681ZM31.3133 12.3921L30.3849 12.0207L30.3808 12.0308L30.377 12.041L31.3133 12.3921ZM31.2893 10.0161L30.3949 10.4633L30.4086 10.4907L30.4239 10.5171L31.2893 10.0161ZM30.4733 9.2961L30.0746 10.2132L30.0816 10.2162L30.0887 10.2192L30.4733 9.2961ZM23.9453 9.0561H22.9453V10.0561H23.9453V9.0561ZM23.9453 6.2721L23.7611 5.28922L22.9453 5.44217V6.2721H23.9453ZM26.4893 5.8881L26.6092 6.88089L26.6164 6.88001L26.6237 6.87903L26.4893 5.8881ZM32.8973 6.2721L32.4575 7.17019L32.4646 7.17362L32.8973 6.2721ZM34.6013 7.9281L35.5075 7.50521V7.50521L34.6013 7.9281ZM34.7693 12.7281L33.823 12.405L33.8194 12.4154L33.8161 12.4259L34.7693 12.7281ZM33.8333 14.6241L34.6516 15.1991L34.6586 15.1888L33.8333 14.6241ZM32.2493 16.4241L31.5606 15.6991L31.5524 15.7069L31.5444 15.7149L32.2493 16.4241ZM28.2653 20.3841L27.5604 19.6749L25.8408 21.3841H28.2653V20.3841ZM35.6573 20.3841H36.6573V19.3841H35.6573V20.3841ZM35.6573 23.6001V24.6001H36.6573V23.6001H35.6573ZM24.5373 23.6001V20.7441H22.5373V23.6001H24.5373ZM24.2416 21.4541L30.1696 15.5741L28.7611 14.1541L22.8331 20.0341L24.2416 21.4541ZM30.1604 15.5831C30.6658 15.0945 31.0946 14.6243 31.4375 14.1732L29.8452 12.963C29.5801 13.3119 29.2249 13.7057 28.7703 14.1451L30.1604 15.5831ZM31.4375 14.1732C31.7876 13.7125 32.0649 13.236 32.2497 12.7432L30.377 12.041C30.2738 12.3162 30.1031 12.6237 29.8452 12.963L31.4375 14.1732ZM32.2418 12.7635C32.4509 12.2407 32.5533 11.6902 32.5533 11.1201H30.5533C30.5533 11.446 30.4957 11.7435 30.3849 12.0207L32.2418 12.7635ZM32.5533 11.1201C32.5533 10.5523 32.4371 10.0027 32.1548 9.51506L30.4239 10.5171C30.4936 10.6375 30.5533 10.8239 30.5533 11.1201H32.5533ZM32.1838 9.56888C31.8993 8.99995 31.4254 8.60944 30.858 8.37302L30.0887 10.2192C30.2893 10.3028 30.3594 10.3922 30.3949 10.4633L32.1838 9.56888ZM30.8721 8.37903C30.3233 8.14042 29.6542 8.0561 28.9373 8.0561V10.0561C29.5325 10.0561 29.8874 10.1318 30.0746 10.2132L30.8721 8.37903ZM28.9373 8.0561H23.9453V10.0561H28.9373V8.0561ZM24.9453 9.0561V6.2721H22.9453V9.0561H24.9453ZM24.1296 7.25497C24.8726 7.11566 25.6987 6.99077 26.6092 6.88089L26.3695 4.8953C25.424 5.00942 24.5541 5.14053 23.7611 5.28922L24.1296 7.25497ZM26.6237 6.87903C27.5151 6.75816 28.5173 6.6961 29.6333 6.6961V4.6961C28.4453 4.6961 27.3516 4.76203 26.355 4.89716L26.6237 6.87903ZM29.6333 6.6961C30.9538 6.6961 31.8681 6.8815 32.4575 7.17016L33.3372 5.37403C32.3586 4.89469 31.0969 4.6961 29.6333 4.6961V6.6961ZM32.4646 7.17362C33.0821 7.47001 33.4684 7.86507 33.6952 8.35098L35.5075 7.50521C35.0623 6.55112 34.3126 5.84218 33.3301 5.37057L32.4646 7.17362ZM33.6952 8.35098C33.9542 8.90612 34.1053 9.62559 34.1053 10.5441H36.1053C36.1053 9.4146 35.9205 8.39007 35.5075 7.50521L33.6952 8.35098ZM34.1053 10.5441C34.1053 11.2508 34.0065 11.8676 33.823 12.405L35.7157 13.0512C35.9802 12.2766 36.1053 11.4374 36.1053 10.5441H34.1053ZM33.8161 12.4259C33.6397 12.9822 33.3727 13.5265 33.008 14.0594L34.6586 15.1888C35.126 14.5057 35.483 13.786 35.7226 13.0303L33.8161 12.4259ZM33.0151 14.0492C32.6444 14.5767 32.1626 15.1271 31.5606 15.6991L32.9381 17.1491C33.616 16.505 34.1902 15.8555 34.6515 15.199L33.0151 14.0492ZM31.5444 15.7149L27.5604 19.6749L28.9703 21.0933L32.9543 17.1333L31.5444 15.7149ZM28.2653 21.3841H35.6573V19.3841H28.2653V21.3841ZM34.6573 20.3841V23.6001H36.6573V20.3841H34.6573ZM35.6573 22.6001H23.5373V24.6001H35.6573V22.6001Z" fill="#341A41" fill-opacity="0.3" mask="url(#path-1-outside-1_911_9397)"/>
<path d="M7.35028 26.6961C6.35828 26.6961 5.51028 26.5281 4.80628 26.1921C4.11828 25.8401 3.59028 25.3201 3.22228 24.6321C2.87028 23.9441 2.69428 23.1041 2.69428 22.1121V13.4721C2.69428 12.4321 2.87828 11.5601 3.24628 10.8561C3.61428 10.1361 4.15028 9.6001 4.85428 9.2481C5.57428 8.8801 6.41428 8.6961 7.37428 8.6961H11.0703C12.0783 8.6961 12.9103 8.8881 13.5663 9.2721C14.2383 9.6401 14.7423 10.1841 15.0783 10.9041C15.4143 11.6081 15.5823 12.4641 15.5823 13.4721V22.1121C15.5823 23.6001 15.1823 24.7361 14.3823 25.5201C13.5983 26.3041 12.4943 26.6961 11.0703 26.6961H7.35028ZM8.19028 23.5041H10.1103C10.7663 23.5041 11.2463 23.3441 11.5503 23.0241C11.8703 22.7041 12.0303 22.2241 12.0303 21.5841V13.8081C12.0303 13.1041 11.8703 12.6081 11.5503 12.3201C11.2303 12.0321 10.7983 11.8881 10.2543 11.8881H8.07028C7.47828 11.8881 7.02228 12.0481 6.70228 12.3681C6.39828 12.6881 6.24628 13.1681 6.24628 13.8081V21.5601C6.24628 22.2321 6.41428 22.7281 6.75028 23.0481C7.08628 23.3521 7.56628 23.5041 8.19028 23.5041ZM17.5373 26.6001V23.7441L23.4653 17.8641C23.9453 17.4001 24.3373 16.9681 24.6413 16.5681C24.9453 16.1681 25.1693 15.7761 25.3133 15.3921C25.4733 14.9921 25.5533 14.5681 25.5533 14.1201C25.5533 13.6881 25.4653 13.3201 25.2893 13.0161C25.1293 12.6961 24.8573 12.4561 24.4733 12.2961C24.1053 12.1361 23.5933 12.0561 22.9373 12.0561H17.9453V9.2721C18.7133 9.1281 19.5613 9.0001 20.4893 8.8881C21.4333 8.7601 22.4813 8.6961 23.6333 8.6961C25.0253 8.6961 26.1133 8.8881 26.8973 9.2721C27.6973 9.6561 28.2653 10.2081 28.6013 10.9281C28.9373 11.6481 29.1053 12.5201 29.1053 13.5441C29.1053 14.3441 28.9933 15.0721 28.7693 15.7281C28.5613 16.3841 28.2493 17.0161 27.8333 17.6241C27.4173 18.2161 26.8893 18.8161 26.2493 19.4241L22.2653 23.3841H29.6573V26.6001H17.5373Z" fill="#341A41"/>
</svg>
