<svg width="126" height="122" viewBox="0 0 126 122" fill="none" xmlns="http://www.w3.org/2000/svg">
<mask id="path-1-outside-1_874_9138" maskUnits="userSpaceOnUse" x="14" y="17" width="109" height="75" fill="black">
<rect fill="white" x="14" y="17" width="109" height="75"/>
<path d="M33.989 90.384C30.021 90.384 26.629 89.712 23.813 88.368C21.061 86.96 18.949 84.88 17.477 82.128C16.069 79.376 15.365 76.016 15.365 72.048V37.488C15.365 33.328 16.101 29.84 17.573 27.024C19.045 24.144 21.189 22 24.005 20.592C26.885 19.12 30.245 18.384 34.085 18.384H48.869C52.901 18.384 56.229 19.152 58.853 20.688C61.541 22.16 63.557 24.336 64.901 27.216C66.245 30.032 66.917 33.456 66.917 37.488V72.048C66.917 78 65.317 82.544 62.117 85.68C58.981 88.816 54.565 90.384 48.869 90.384H33.989ZM37.349 77.616H45.029C47.653 77.616 49.573 76.976 50.789 75.696C52.069 74.416 52.709 72.496 52.709 69.936V38.832C52.709 36.016 52.069 34.032 50.789 32.88C49.509 31.728 47.781 31.152 45.605 31.152H36.869C34.501 31.152 32.677 31.792 31.397 33.072C30.181 34.352 29.573 36.272 29.573 38.832V69.84C29.573 72.528 30.245 74.512 31.589 75.792C32.933 77.008 34.853 77.616 37.349 77.616ZM101.137 90.576C96.0173 90.576 91.1213 90.384 86.4493 90C81.8413 89.68 77.6813 89.2 73.9693 88.56V77.136H95.7613C98.3853 77.136 100.529 76.944 102.193 76.56C103.857 76.176 105.073 75.504 105.841 74.544C106.673 73.584 107.089 72.24 107.089 70.512V67.536C107.089 65.808 106.673 64.464 105.841 63.504C105.009 62.48 103.889 61.744 102.481 61.296C101.137 60.784 99.5693 60.496 97.7773 60.432L80.3053 59.76V48.816L97.2013 47.856C100.081 47.728 102.321 47.216 103.921 46.32C105.521 45.424 106.321 43.888 106.321 41.712V39.312C106.321 36.752 105.457 34.864 103.729 33.648C102.065 32.432 99.2493 31.824 95.2813 31.824H75.5053V20.496C79.1533 19.92 83.1213 19.408 87.4093 18.96C91.6973 18.448 96.2093 18.256 100.945 18.384C105.105 18.448 108.625 19.152 111.505 20.496C114.385 21.776 116.561 23.728 118.033 26.352C119.569 28.912 120.337 32.112 120.337 35.952V41.232C120.337 43.024 120.113 44.656 119.665 46.128C119.281 47.6 118.673 48.88 117.841 49.968C117.009 50.992 116.049 51.888 114.961 52.656C113.873 53.36 112.721 53.904 111.505 54.288C112.849 54.608 114.097 55.216 115.249 56.112C116.465 57.008 117.521 58.096 118.417 59.376C119.313 60.592 120.017 62.064 120.529 63.792C121.105 65.52 121.393 67.408 121.393 69.456V73.104C121.393 78.8 119.601 83.152 116.017 86.16C112.433 89.104 107.473 90.576 101.137 90.576Z"/>
</mask>
<path d="M23.813 88.368L23.3575 89.2582L23.3698 89.2645L23.3823 89.2705L23.813 88.368ZM17.477 82.128L16.5868 82.5835L16.5909 82.5916L16.5952 82.5997L17.477 82.128ZM17.573 27.024L18.4593 27.4873L18.4634 27.4791L17.573 27.024ZM24.005 20.592L24.4522 21.4865L24.4601 21.4824L24.005 20.592ZM58.853 20.688L58.3478 21.551L58.3602 21.5582L58.3727 21.5651L58.853 20.688ZM64.901 27.216L63.9948 27.6389L63.9985 27.6467L64.901 27.216ZM62.117 85.68L61.417 84.9658L61.4099 84.9729L62.117 85.68ZM50.789 75.696L50.0819 74.9889L50.0728 74.998L50.064 75.0072L50.789 75.696ZM31.397 33.072L30.6899 32.3649L30.6808 32.374L30.672 32.3832L31.397 33.072ZM31.589 75.792L30.8993 76.5161L30.9086 76.525L30.9181 76.5335L31.589 75.792ZM33.989 89.384C30.1308 89.384 26.8938 88.7303 24.2437 87.4655L23.3823 89.2705C26.3642 90.6937 29.9112 91.384 33.989 91.384V89.384ZM24.2685 87.4778C21.6998 86.1635 19.7356 84.2305 18.3588 81.6563L16.5952 82.5997C18.1624 85.5295 20.4222 87.7565 23.3575 89.2582L24.2685 87.4778ZM18.3672 81.6725C17.0489 79.0958 16.365 75.9012 16.365 72.048H14.365C14.365 76.1308 15.0891 79.6562 16.5868 82.5835L18.3672 81.6725ZM16.365 72.048V37.488H14.365V72.048H16.365ZM16.365 37.488C16.365 33.4412 17.0815 30.123 18.4592 27.4873L16.6868 26.5607C15.1205 29.557 14.365 33.2148 14.365 37.488H16.365ZM18.4634 27.4791C19.8412 24.7835 21.8326 22.7963 24.4522 21.4864L23.5578 19.6976C20.5454 21.2037 18.2488 23.5045 16.6826 26.5689L18.4634 27.4791ZM24.4601 21.4824C27.1751 20.0948 30.3738 19.384 34.085 19.384V17.384C30.1162 17.384 26.5949 18.1452 23.5499 19.7016L24.4601 21.4824ZM34.085 19.384H48.869V17.384H34.085V19.384ZM48.869 19.384C52.7796 19.384 55.9192 20.1294 58.3478 21.551L59.3582 19.825C56.5388 18.1746 53.0224 17.384 48.869 17.384V19.384ZM58.3727 21.5651C60.8667 22.9309 62.7373 24.9441 63.9948 27.6389L65.8072 26.7931C64.3767 23.7279 62.2153 21.3891 59.3333 19.8109L58.3727 21.5651ZM63.9985 27.6467C65.2624 30.2949 65.917 33.5631 65.917 37.488H67.917C67.917 33.3489 67.2276 29.7691 65.8035 26.7853L63.9985 27.6467ZM65.917 37.488V72.048H67.917V37.488H65.917ZM65.917 72.048C65.917 77.8229 64.3684 82.0735 61.4171 84.9658L62.8169 86.3942C66.2657 83.0145 67.917 78.1771 67.917 72.048H65.917ZM61.4099 84.9729C58.5107 87.8721 54.3787 89.384 48.869 89.384V91.384C54.7513 91.384 59.4513 89.7599 62.8241 86.3871L61.4099 84.9729ZM48.869 89.384H33.989V91.384H48.869V89.384ZM37.349 78.616H45.029V76.616H37.349V78.616ZM45.029 78.616C47.7939 78.616 50.0338 77.9429 51.514 76.3848L50.064 75.0072C49.1123 76.0091 47.5121 76.616 45.029 76.616V78.616ZM51.4961 76.4031C53.0298 74.8694 53.709 72.6501 53.709 69.936H51.709C51.709 72.3419 51.1082 73.9626 50.0819 74.9889L51.4961 76.4031ZM53.709 69.936V38.832H51.709V69.936H53.709ZM53.709 38.832C53.709 35.907 53.0506 33.57 51.458 32.1367L50.12 33.6233C51.0874 34.4939 51.709 36.125 51.709 38.832H53.709ZM51.458 32.1367C49.9497 30.7793 47.9606 30.152 45.605 30.152V32.152C47.6014 32.152 49.0683 32.6767 50.12 33.6233L51.458 32.1367ZM45.605 30.152H36.869V32.152H45.605V30.152ZM36.869 30.152C34.3208 30.152 32.21 30.8448 30.6899 32.3649L32.1041 33.7791C33.144 32.7392 34.6812 32.152 36.869 32.152V30.152ZM30.672 32.3832C29.2138 33.9182 28.573 36.1303 28.573 38.832H30.573C30.573 36.4137 31.1482 34.7858 32.122 33.7607L30.672 32.3832ZM28.573 38.832V69.84H30.573V38.832H28.573ZM28.573 69.84C28.573 72.6778 29.2825 74.9763 30.8993 76.5161L32.2787 75.0679C31.2075 74.0477 30.573 72.3782 30.573 69.84H28.573ZM30.9181 76.5335C32.5055 77.9697 34.6991 78.616 37.349 78.616V76.616C35.0069 76.616 33.3605 76.0463 32.2599 75.0505L30.9181 76.5335ZM86.4492 90L86.5312 89.0033L86.5185 89.0024L86.4492 90ZM73.9692 88.56H72.9692V89.4023L73.7993 89.5455L73.9692 88.56ZM73.9692 77.136V76.136H72.9692V77.136H73.9692ZM102.193 76.56L102.418 77.5344L102.193 76.56ZM105.841 74.544L105.086 73.8891L105.073 73.9039L105.06 73.9193L105.841 74.544ZM105.841 63.504L105.065 64.1346L105.075 64.1469L105.086 64.1589L105.841 63.504ZM102.481 61.296L102.125 62.2305L102.151 62.2404L102.178 62.2489L102.481 61.296ZM97.7773 60.432L97.7388 61.4313L97.7416 61.4314L97.7773 60.432ZM80.3053 59.76H79.3053V60.7223L80.2668 60.7593L80.3053 59.76ZM80.3053 48.816L80.2485 47.8176L79.3053 47.8712V48.816H80.3053ZM97.2012 47.856L97.1568 46.8569L97.1445 46.8576L97.2012 47.856ZM103.729 33.648L103.139 34.4554L103.146 34.4607L103.154 34.4658L103.729 33.648ZM75.5052 31.824H74.5052V32.824H75.5052V31.824ZM75.5052 20.496L75.3493 19.5082L74.5052 19.6415V20.496H75.5052ZM87.4092 18.96L87.5132 19.9546L87.5205 19.9538L87.5278 19.9529L87.4092 18.96ZM100.945 18.384L100.918 19.3837L100.93 19.3839L100.945 18.384ZM111.505 20.496L111.082 21.4022L111.091 21.4061L111.099 21.4098L111.505 20.496ZM118.033 26.352L117.161 26.8412L117.168 26.854L117.176 26.8665L118.033 26.352ZM119.665 46.128L118.709 45.8368L118.703 45.8561L118.698 45.8756L119.665 46.128ZM117.841 49.968L118.617 50.5986L118.627 50.5872L118.636 50.5754L117.841 49.968ZM114.961 52.656L115.505 53.4956L115.521 53.4846L115.538 53.473L114.961 52.656ZM111.505 54.288L111.204 53.3344L107.756 54.4233L111.274 55.2608L111.505 54.288ZM115.249 56.112L114.635 56.9014L114.646 56.9093L114.656 56.9171L115.249 56.112ZM118.417 59.376L117.598 59.9495L117.605 59.9594L117.612 59.9692L118.417 59.376ZM120.529 63.792L119.57 64.0761L119.575 64.0922L119.581 64.1082L120.529 63.792ZM116.017 86.16L116.652 86.9328L116.66 86.926L116.017 86.16ZM101.137 89.576C96.0421 89.576 91.1736 89.3849 86.5312 89.0034L86.3673 90.9966C91.0689 91.3831 95.9924 91.576 101.137 91.576V89.576ZM86.5185 89.0024C81.937 88.6842 77.8114 88.2077 74.1392 87.5745L73.7993 89.5455C77.5511 90.1923 81.7455 90.6758 86.38 90.9976L86.5185 89.0024ZM74.9693 88.56V77.136H72.9692V88.56H74.9693ZM73.9692 78.136H95.7613V76.136H73.9692V78.136ZM95.7613 78.136C98.4252 78.136 100.652 77.9419 102.418 77.5344L101.968 75.5856C100.406 75.9461 98.3453 76.136 95.7613 76.136V78.136ZM102.418 77.5344C104.217 77.1192 105.668 76.3618 106.622 75.1687L105.06 73.9193C104.479 74.6462 103.497 75.2328 101.968 75.5856L102.418 77.5344ZM106.597 75.1989C107.635 74.0006 108.089 72.3935 108.089 70.512H106.089C106.089 72.0865 105.711 73.1674 105.086 73.8891L106.597 75.1989ZM108.089 70.512V67.536H106.089V70.512H108.089ZM108.089 67.536C108.089 65.6545 107.635 64.0473 106.597 62.8491L105.086 64.1589C105.711 64.8806 106.089 65.9615 106.089 67.536H108.089ZM106.617 62.8734C105.648 61.6805 104.355 60.8428 102.784 60.3431L102.178 62.2489C103.423 62.6452 104.37 63.2795 105.065 64.1346L106.617 62.8734ZM102.837 60.3615C101.369 59.8022 99.6886 59.4996 97.8129 59.4326L97.7416 61.4314C99.4499 61.4924 100.905 61.7658 102.125 62.2305L102.837 60.3615ZM97.8157 59.4327L80.3437 58.7607L80.2668 60.7593L97.7388 61.4313L97.8157 59.4327ZM81.3053 59.76V48.816H79.3053V59.76H81.3053ZM80.362 49.8144L97.258 48.8544L97.1445 46.8576L80.2485 47.8176L80.362 49.8144ZM97.2457 48.855C100.201 48.7236 102.618 48.1961 104.41 47.1925L103.433 45.4475C102.025 46.2359 99.9611 46.7323 97.1569 46.857L97.2457 48.855ZM104.41 47.1925C106.39 46.0835 107.321 44.1694 107.321 41.712H105.321C105.321 43.6065 104.652 44.7645 103.433 45.4475L104.41 47.1925ZM107.321 41.712V39.312H105.321V41.712H107.321ZM107.321 39.312C107.321 36.5046 106.357 34.2743 104.305 32.8302L103.154 34.4658C104.558 35.4537 105.321 36.9994 105.321 39.312H107.321ZM104.319 32.8406C102.386 31.4279 99.2946 30.824 95.2812 30.824V32.824C99.2039 32.824 101.744 33.4361 103.139 34.4554L104.319 32.8406ZM95.2812 30.824H75.5052V32.824H95.2812V30.824ZM76.5052 31.824V20.496H74.5052V31.824H76.5052ZM75.6612 21.4838C79.2894 20.9109 83.2398 20.4011 87.5132 19.9546L87.3053 17.9654C83.0027 18.4149 79.0171 18.9291 75.3493 19.5082L75.6612 21.4838ZM87.5278 19.9529C91.7631 19.4472 96.2262 19.2568 100.918 19.3836L100.972 17.3844C96.1923 17.2552 91.6314 17.4488 87.2907 17.9671L87.5278 19.9529ZM100.93 19.3839C104.991 19.4463 108.363 20.1332 111.082 21.4022L111.928 19.5898C108.887 18.1708 105.22 17.4496 100.961 17.3841L100.93 19.3839ZM111.099 21.4098C113.792 22.6067 115.8 24.4146 117.161 26.8412L118.905 25.8627C117.323 23.0413 114.978 20.9453 111.911 19.5822L111.099 21.4098ZM117.176 26.8665C118.595 29.2325 119.337 32.2423 119.337 35.952H121.337C121.337 31.9817 120.543 28.5915 118.891 25.8375L117.176 26.8665ZM119.337 35.952V41.232H121.337V35.952H119.337ZM119.337 41.232C119.337 42.9412 119.124 44.4733 118.709 45.8368L120.622 46.4192C121.103 44.8387 121.337 43.1068 121.337 41.232H119.337ZM118.698 45.8756C118.343 47.2332 117.79 48.3893 117.047 49.3605L118.636 50.5754C119.557 49.3707 120.219 47.9668 120.633 46.3804L118.698 45.8756ZM117.065 49.3374C116.291 50.2898 115.399 51.1232 114.385 51.839L115.538 53.473C116.7 52.6527 117.727 51.6942 118.617 50.5986L117.065 49.3374ZM114.418 51.8164C113.404 52.4725 112.333 52.9778 111.204 53.3344L111.806 55.2416C113.109 54.8302 114.343 54.2475 115.505 53.4956L114.418 51.8164ZM111.274 55.2608C112.471 55.5458 113.59 56.0881 114.635 56.9014L115.863 55.3226C114.605 54.3439 113.228 53.6702 111.737 53.3152L111.274 55.2608ZM114.656 56.9171C115.782 57.7464 116.762 58.7553 117.598 59.9495L119.236 58.8025C118.28 57.4367 117.149 56.2696 115.842 55.3069L114.656 56.9171ZM117.612 59.9692C118.428 61.0758 119.085 62.4383 119.57 64.0761L121.488 63.5079C120.949 61.6897 120.199 60.1082 119.222 58.7828L117.612 59.9692ZM119.581 64.1082C120.119 65.7224 120.393 67.5023 120.393 69.456H122.393C122.393 67.3137 122.092 65.3176 121.478 63.4758L119.581 64.1082ZM120.393 69.456V73.104H122.393V69.456H120.393ZM120.393 73.104C120.393 78.5749 118.683 82.6171 115.374 85.394L116.66 86.926C120.519 83.6869 122.393 79.0251 122.393 73.104H120.393ZM115.383 85.3873C112.033 88.1384 107.326 89.576 101.137 89.576V91.576C107.62 91.576 112.833 90.0695 116.652 86.9327L115.383 85.3873Z" fill="#341A41" fill-opacity="0.3" mask="url(#path-1-outside-1_874_9138)"/>
<path d="M23.989 97.384C20.021 97.384 16.629 96.712 13.813 95.368C11.061 93.96 8.949 91.88 7.477 89.128C6.069 86.376 5.365 83.016 5.365 79.048V44.488C5.365 40.328 6.101 36.84 7.573 34.024C9.045 31.144 11.189 29 14.005 27.592C16.885 26.12 20.245 25.384 24.085 25.384H38.869C42.901 25.384 46.229 26.152 48.853 27.688C51.541 29.16 53.557 31.336 54.901 34.216C56.245 37.032 56.917 40.456 56.917 44.488V79.048C56.917 85 55.317 89.544 52.117 92.68C48.981 95.816 44.565 97.384 38.869 97.384H23.989ZM27.349 84.616H35.029C37.653 84.616 39.573 83.976 40.789 82.696C42.069 81.416 42.709 79.496 42.709 76.936V45.832C42.709 43.016 42.069 41.032 40.789 39.88C39.509 38.728 37.781 38.152 35.605 38.152H26.869C24.501 38.152 22.677 38.792 21.397 40.072C20.181 41.352 19.573 43.272 19.573 45.832V76.84C19.573 79.528 20.245 81.512 21.589 82.792C22.933 84.008 24.853 84.616 27.349 84.616ZM91.1373 97.576C86.0173 97.576 81.1213 97.384 76.4493 97C71.8413 96.68 67.6813 96.2 63.9693 95.56V84.136H85.7613C88.3853 84.136 90.5293 83.944 92.1933 83.56C93.8573 83.176 95.0733 82.504 95.8413 81.544C96.6733 80.584 97.0893 79.24 97.0893 77.512V74.536C97.0893 72.808 96.6733 71.464 95.8413 70.504C95.0093 69.48 93.8893 68.744 92.4813 68.296C91.1373 67.784 89.5693 67.496 87.7773 67.432L70.3053 66.76V55.816L87.2013 54.856C90.0813 54.728 92.3213 54.216 93.9213 53.32C95.5213 52.424 96.3213 50.888 96.3213 48.712V46.312C96.3213 43.752 95.4573 41.864 93.7293 40.648C92.0653 39.432 89.2493 38.824 85.2813 38.824H65.5053V27.496C69.1533 26.92 73.1213 26.408 77.4093 25.96C81.6973 25.448 86.2093 25.256 90.9453 25.384C95.1053 25.448 98.6253 26.152 101.505 27.496C104.385 28.776 106.561 30.728 108.033 33.352C109.569 35.912 110.337 39.112 110.337 42.952V48.232C110.337 50.024 110.113 51.656 109.665 53.128C109.281 54.6 108.673 55.88 107.841 56.968C107.009 57.992 106.049 58.888 104.961 59.656C103.873 60.36 102.721 60.904 101.505 61.288C102.849 61.608 104.097 62.216 105.249 63.112C106.465 64.008 107.521 65.096 108.417 66.376C109.313 67.592 110.017 69.064 110.529 70.792C111.105 72.52 111.393 74.408 111.393 76.456V80.104C111.393 85.8 109.601 90.152 106.017 93.16C102.433 96.104 97.4733 97.576 91.1373 97.576Z" fill="#341A41"/>
</svg>
