<svg width="36" height="33" viewBox="0 0 36 33" fill="none" xmlns="http://www.w3.org/2000/svg">
<mask id="path-1-outside-1_911_9421" maskUnits="userSpaceOnUse" x="6.93506" y="4.6001" width="29" height="21" fill="black">
<rect fill="white" x="6.93506" y="4.6001" width="29" height="21"/>
<path d="M12.9323 23.6961C11.9403 23.6961 11.0923 23.5281 10.3883 23.1921C9.70031 22.8401 9.17231 22.3201 8.80431 21.6321C8.45231 20.9441 8.27631 20.1041 8.27631 19.1121V10.4721C8.27631 9.4321 8.46031 8.5601 8.82831 7.8561C9.19631 7.1361 9.73231 6.6001 10.4363 6.2481C11.1563 5.8801 11.9963 5.6961 12.9563 5.6961H16.6523C17.6603 5.6961 18.4923 5.8881 19.1483 6.2721C19.8203 6.6401 20.3243 7.1841 20.6603 7.9041C20.9963 8.6081 21.1643 9.4641 21.1643 10.4721V19.1121C21.1643 20.6001 20.7643 21.7361 19.9643 22.5201C19.1803 23.3041 18.0763 23.6961 16.6523 23.6961H12.9323ZM13.7723 20.5041H15.6923C16.3483 20.5041 16.8283 20.3441 17.1323 20.0241C17.4523 19.7041 17.6123 19.2241 17.6123 18.5841V10.8081C17.6123 10.1041 17.4523 9.6081 17.1323 9.3201C16.8123 9.0321 16.3803 8.8881 15.8363 8.8881H13.6523C13.0603 8.8881 12.6043 9.0481 12.2843 9.3681C11.9803 9.6881 11.8283 10.1681 11.8283 10.8081V18.5601C11.8283 19.2321 11.9963 19.7281 12.3323 20.0481C12.6683 20.3521 13.1483 20.5041 13.7723 20.5041ZM29.7194 23.7441C28.4394 23.7441 27.2154 23.6961 26.0474 23.6001C24.8954 23.5201 23.8554 23.4001 22.9274 23.2401V20.3841H28.3754C29.0314 20.3841 29.5674 20.3361 29.9834 20.2401C30.3994 20.1441 30.7034 19.9761 30.8954 19.7361C31.1034 19.4961 31.2074 19.1601 31.2074 18.7281V17.9841C31.2074 17.5521 31.1034 17.2161 30.8954 16.9761C30.6874 16.7201 30.4074 16.5361 30.0554 16.4241C29.7194 16.2961 29.3274 16.2241 28.8794 16.2081L24.5114 16.0401V13.3041L28.7354 13.0641C29.4554 13.0321 30.0154 12.9041 30.4154 12.6801C30.8154 12.4561 31.0154 12.0721 31.0154 11.5281V10.9281C31.0154 10.2881 30.7994 9.8161 30.3674 9.5121C29.9514 9.2081 29.2474 9.0561 28.2554 9.0561H23.3114V6.2241C24.2234 6.0801 25.2154 5.9521 26.2874 5.8401C27.3594 5.7121 28.4874 5.6641 29.6714 5.6961C30.7114 5.7121 31.5914 5.8881 32.3114 6.2241C33.0314 6.5441 33.5754 7.0321 33.9434 7.6881C34.3274 8.3281 34.5194 9.1281 34.5194 10.0881V11.4081C34.5194 11.8561 34.4634 12.2641 34.3514 12.6321C34.2554 13.0001 34.1034 13.3201 33.8954 13.5921C33.6874 13.8481 33.4474 14.0721 33.1754 14.2641C32.9034 14.4401 32.6154 14.5761 32.3114 14.6721C32.6474 14.7521 32.9594 14.9041 33.2474 15.1281C33.5514 15.3521 33.8154 15.6241 34.0394 15.9441C34.2634 16.2481 34.4394 16.6161 34.5674 17.0481C34.7114 17.4801 34.7834 17.9521 34.7834 18.4641V19.3761C34.7834 20.8001 34.3354 21.8881 33.4394 22.6401C32.5434 23.3761 31.3034 23.7441 29.7194 23.7441Z"/>
</mask>
<path d="M10.3883 23.1921L9.93283 24.0823L9.94512 24.0886L9.95758 24.0946L10.3883 23.1921ZM8.80431 21.6321L7.91406 22.0876L7.91822 22.0957L7.92252 22.1038L8.80431 21.6321ZM8.82831 7.8561L9.71457 8.31937L9.71874 8.31121L8.82831 7.8561ZM10.4363 6.2481L10.8835 7.14256L10.8914 7.13853L10.4363 6.2481ZM19.1483 6.2721L18.6431 7.13511L18.6555 7.14233L18.668 7.14919L19.1483 6.2721ZM20.6603 7.9041L19.7541 8.327L19.7578 8.33483L20.6603 7.9041ZM19.9643 22.5201L19.2643 21.8058L19.2572 21.813L19.9643 22.5201ZM17.1323 20.0241L16.4252 19.317L16.4161 19.3261L16.4073 19.3353L17.1323 20.0241ZM12.2843 9.3681L11.5772 8.66099L11.5681 8.67005L11.5593 8.67935L12.2843 9.3681ZM12.3323 20.0481L11.6427 20.7722L11.6519 20.7811L11.6614 20.7896L12.3323 20.0481ZM12.9323 22.6961C12.0501 22.6961 11.3571 22.5464 10.819 22.2896L9.95758 24.0946C10.8275 24.5098 11.8305 24.6961 12.9323 24.6961V22.6961ZM10.8438 22.3018C10.3391 22.0436 9.95895 21.6706 9.68609 21.1604L7.92252 22.1038C8.38566 22.9696 9.06154 23.6366 9.93283 24.0823L10.8438 22.3018ZM9.69456 21.1766C9.43222 20.6639 9.27631 19.9893 9.27631 19.1121H7.27631C7.27631 20.2189 7.4724 21.2243 7.91406 22.0876L9.69456 21.1766ZM9.27631 19.1121V10.4721H7.27631V19.1121H9.27631ZM9.27631 10.4721C9.27631 9.54529 9.44078 8.84306 9.71453 8.31935L7.94208 7.39284C7.47984 8.27714 7.27631 9.31891 7.27631 10.4721H9.27631ZM9.71874 8.31121C9.99249 7.77561 10.3759 7.39636 10.8835 7.14252L9.98909 5.35367C9.08876 5.80384 8.40012 6.49658 7.93787 7.40099L9.71874 8.31121ZM10.8914 7.13853C11.4464 6.85486 12.1251 6.6961 12.9563 6.6961V4.6961C11.8675 4.6961 10.8662 4.90534 9.9812 5.35766L10.8914 7.13853ZM12.9563 6.6961H16.6523V4.6961H12.9563V6.6961ZM16.6523 6.6961C17.5389 6.6961 18.1825 6.86547 18.6431 7.13511L19.6535 5.40908C18.8021 4.91072 17.7817 4.6961 16.6523 4.6961V6.6961ZM18.668 7.14919C19.1461 7.41099 19.5046 7.79221 19.7541 8.32698L21.5665 7.48121C21.1441 6.57599 20.4946 5.8692 19.6286 5.395L18.668 7.14919ZM19.7578 8.33483C20.0137 8.87099 20.1643 9.5712 20.1643 10.4721H22.1643C22.1643 9.357 21.9789 8.34521 21.5628 7.47337L19.7578 8.33483ZM20.1643 10.4721V19.1121H22.1643V10.4721H20.1643ZM20.1643 19.1121C20.1643 20.423 19.8157 21.2656 19.2644 21.8059L20.6642 23.2343C21.713 22.2066 22.1643 20.7772 22.1643 19.1121H20.1643ZM19.2572 21.813C18.71 22.3602 17.89 22.6961 16.6523 22.6961V24.6961C18.2626 24.6961 19.6506 24.248 20.6714 23.2272L19.2572 21.813ZM16.6523 22.6961H12.9323V24.6961H16.6523V22.6961ZM13.7723 21.5041H15.6923V19.5041H13.7723V21.5041ZM15.6923 21.5041C16.4892 21.5041 17.2891 21.311 17.8573 20.7128L16.4073 19.3353C16.3676 19.3772 16.2075 19.5041 15.6923 19.5041V21.5041ZM17.8394 20.7312C18.4131 20.1575 18.6123 19.3782 18.6123 18.5841H16.6123C16.6123 19.07 16.4915 19.2507 16.4252 19.317L17.8394 20.7312ZM18.6123 18.5841V10.8081H16.6123V18.5841H18.6123ZM18.6123 10.8081C18.6123 9.99514 18.4339 9.14615 17.8013 8.5768L16.4633 10.0634C16.4707 10.07 16.6123 10.2131 16.6123 10.8081H18.6123ZM17.8013 8.5768C17.253 8.08337 16.5599 7.8881 15.8363 7.8881V9.8881C16.2007 9.8881 16.3716 9.98082 16.4633 10.0634L17.8013 8.5768ZM15.8363 7.8881H13.6523V9.8881H15.8363V7.8881ZM13.6523 7.8881C12.8801 7.8881 12.1373 8.10087 11.5772 8.66099L12.9914 10.0752C13.0713 9.99533 13.2405 9.8881 13.6523 9.8881V7.8881ZM11.5593 8.67935C11.0131 9.25434 10.8283 10.0264 10.8283 10.8081H12.8283C12.8283 10.3098 12.9476 10.1219 13.0093 10.0568L11.5593 8.67935ZM10.8283 10.8081V18.5601H12.8283V10.8081H10.8283ZM10.8283 18.5601C10.8283 19.3819 11.0338 20.1924 11.6427 20.7722L13.022 19.324C12.9588 19.2638 12.8283 19.0823 12.8283 18.5601H10.8283ZM11.6614 20.7896C12.2408 21.3138 12.9944 21.5041 13.7723 21.5041V19.5041C13.3022 19.5041 13.0958 19.3904 13.0032 19.3066L11.6614 20.7896ZM26.0474 23.6001L26.1293 22.6034L26.1166 22.6025L26.0474 23.6001ZM22.9274 23.2401H21.9274V24.0824L22.7575 24.2256L22.9274 23.2401ZM22.9274 20.3841V19.3841H21.9274V20.3841H22.9274ZM29.9834 20.2401L30.2082 21.2145L29.9834 20.2401ZM30.8954 19.7361L30.1397 19.0812L30.1268 19.096L30.1145 19.1114L30.8954 19.7361ZM30.8954 16.9761L30.1193 17.6067L30.1293 17.619L30.1397 17.631L30.8954 16.9761ZM30.0554 16.4241L29.6994 17.3586L29.7255 17.3685L29.7522 17.377L30.0554 16.4241ZM28.8794 16.2081L28.8409 17.2074L28.8437 17.2075L28.8794 16.2081ZM24.5114 16.0401H23.5114V17.0024L24.4729 17.0394L24.5114 16.0401ZM24.5114 13.3041L24.4546 12.3057L23.5114 12.3593V13.3041H24.5114ZM28.7354 13.0641L28.691 12.065L28.6786 12.0657L28.7354 13.0641ZM30.3674 9.5121L29.7774 10.3195L29.7846 10.3248L29.7919 10.3299L30.3674 9.5121ZM23.3114 9.0561H22.3114V10.0561H23.3114V9.0561ZM23.3114 6.2241L23.1554 5.23633L22.3114 5.3696V6.2241H23.3114ZM26.2874 5.8401L26.3913 6.83468L26.3986 6.83392L26.4059 6.83304L26.2874 5.8401ZM29.6714 5.6961L29.6444 6.6958L29.656 6.69598L29.6714 5.6961ZM32.3114 6.2241L31.8885 7.13028L31.8968 7.13417L31.9052 7.13791L32.3114 6.2241ZM33.9434 7.6881L33.0712 8.17735L33.0784 8.19008L33.0859 8.20259L33.9434 7.6881ZM34.3514 12.6321L33.3947 12.3409L33.3888 12.3602L33.3838 12.3797L34.3514 12.6321ZM33.8954 13.5921L34.6715 14.2227L34.6808 14.2113L34.6897 14.1995L33.8954 13.5921ZM33.1754 14.2641L33.7186 15.1037L33.7356 15.0927L33.7521 15.0811L33.1754 14.2641ZM32.3114 14.6721L32.0102 13.7185L28.5622 14.8074L32.0798 15.6449L32.3114 14.6721ZM33.2474 15.1281L32.6334 15.9174L32.6437 15.9254L32.6542 15.9332L33.2474 15.1281ZM34.0394 15.9441L33.2201 16.5176L33.2271 16.5275L33.2343 16.5373L34.0394 15.9441ZM34.5674 17.0481L33.6086 17.3322L33.6134 17.3483L33.6187 17.3643L34.5674 17.0481ZM33.4394 22.6401L34.0741 23.4129L34.0822 23.4061L33.4394 22.6401ZM29.7194 22.7441C28.4642 22.7441 27.2677 22.697 26.1293 22.6035L25.9655 24.5967C27.1631 24.6952 28.4145 24.7441 29.7194 24.7441V22.7441ZM26.1166 22.6025C24.9912 22.5243 23.9855 22.4078 23.0973 22.2546L22.7575 24.2256C23.7252 24.3924 24.7996 24.5159 25.9781 24.5977L26.1166 22.6025ZM23.9274 23.2401V20.3841H21.9274V23.2401H23.9274ZM22.9274 21.3841H28.3754V19.3841H22.9274V21.3841ZM28.3754 21.3841C29.0713 21.3841 29.6903 21.334 30.2082 21.2145L29.7585 19.2657C29.4444 19.3382 28.9914 19.3841 28.3754 19.3841V21.3841ZM30.2082 21.2145C30.7596 21.0873 31.2978 20.8339 31.6762 20.3608L30.1145 19.1114C30.109 19.1183 30.0392 19.2009 29.7585 19.2657L30.2082 21.2145ZM31.6511 20.391C32.0656 19.9127 32.2074 19.3136 32.2074 18.7281H30.2074C30.2074 19.0066 30.1412 19.0794 30.1397 19.0812L31.6511 20.391ZM32.2074 18.7281V17.9841H30.2074V18.7281H32.2074ZM32.2074 17.9841C32.2074 17.3986 32.0656 16.7994 31.6511 16.3212L30.1397 17.631C30.1412 17.6327 30.2074 17.7056 30.2074 17.9841H32.2074ZM31.6715 16.3455C31.3262 15.9206 30.8732 15.6349 30.3586 15.4712L29.7522 17.377C29.9415 17.4373 30.0485 17.5196 30.1193 17.6067L31.6715 16.3455ZM30.4114 15.4896C29.9512 15.3143 29.4468 15.2277 28.9151 15.2087L28.8437 17.2075C29.208 17.2205 29.4876 17.2779 29.6994 17.3586L30.4114 15.4896ZM28.9178 15.2088L24.5498 15.0408L24.4729 17.0394L28.8409 17.2074L28.9178 15.2088ZM25.5114 16.0401V13.3041H23.5114V16.0401H25.5114ZM24.5681 14.3025L28.7921 14.0625L28.6786 12.0657L24.4546 12.3057L24.5681 14.3025ZM28.7798 14.0631C29.5755 14.0277 30.3118 13.8842 30.904 13.5526L29.9268 11.8076C29.719 11.924 29.3353 12.0364 28.691 12.0651L28.7798 14.0631ZM30.904 13.5526C31.6843 13.1156 32.0154 12.3535 32.0154 11.5281H30.0154C30.0154 11.6796 29.9875 11.7447 29.9785 11.7622C29.9739 11.771 29.9701 11.7756 29.9661 11.7797C29.9618 11.7841 29.9508 11.7942 29.9268 11.8076L30.904 13.5526ZM32.0154 11.5281V10.9281H30.0154V11.5281H32.0154ZM32.0154 10.9281C32.0154 10.0407 31.699 9.22641 30.9429 8.69429L29.7919 10.3299C29.8997 10.4058 30.0154 10.5355 30.0154 10.9281H32.0154ZM30.9574 8.70471C30.2722 8.20396 29.2927 8.0561 28.2554 8.0561V10.0561C29.202 10.0561 29.6306 10.2122 29.7774 10.3195L30.9574 8.70471ZM28.2554 8.0561H23.3114V10.0561H28.2554V8.0561ZM24.3114 9.0561V6.2241H22.3114V9.0561H24.3114ZM23.4673 7.21186C24.3595 7.07099 25.3339 6.94516 26.3913 6.83468L26.1835 4.84551C25.0968 4.95904 24.0873 5.0892 23.1554 5.23633L23.4673 7.21186ZM26.4059 6.83304C27.4252 6.71133 28.5044 6.66492 29.6444 6.69573L29.6984 4.69646C28.4704 4.66327 27.2935 4.71286 26.1688 4.84715L26.4059 6.83304ZM29.656 6.69598C30.5967 6.71045 31.3292 6.86927 31.8885 7.13028L32.7343 5.31791C31.8536 4.90692 30.8261 4.71374 29.6868 4.69621L29.656 6.69598ZM31.9052 7.13791C32.4382 7.37478 32.814 7.71874 33.0712 8.17735L34.8155 7.19885C34.3368 6.34545 33.6245 5.71341 32.7175 5.31029L31.9052 7.13791ZM33.0859 8.20259C33.3535 8.64863 33.5194 9.25839 33.5194 10.0881H35.5194C35.5194 8.9978 35.3012 8.00756 34.8009 7.1736L33.0859 8.20259ZM33.5194 10.0881V11.4081H35.5194V10.0881H33.5194ZM33.5194 11.4081C33.5194 11.7733 33.4737 12.0814 33.3947 12.3409L35.308 12.9233C35.453 12.4468 35.5194 11.9389 35.5194 11.4081H33.5194ZM33.3838 12.3797C33.3176 12.6333 33.2197 12.8294 33.101 12.9846L34.6897 14.1995C34.987 13.8108 35.1931 13.3669 35.319 12.8845L33.3838 12.3797ZM33.1193 12.9615C32.9694 13.1459 32.7967 13.3073 32.5987 13.4471L33.7521 15.0811C34.098 14.8368 34.4053 14.5503 34.6715 14.2227L33.1193 12.9615ZM32.6321 13.4245C32.4341 13.5526 32.2274 13.6499 32.0102 13.7185L32.6125 15.6257C33.0033 15.5023 33.3726 15.3275 33.7186 15.1037L32.6321 13.4245ZM32.0798 15.6449C32.2689 15.6899 32.4518 15.7762 32.6334 15.9174L33.8613 14.3387C33.4669 14.032 33.0259 13.8143 32.543 13.6993L32.0798 15.6449ZM32.6542 15.9332C32.8678 16.0905 33.0562 16.2834 33.2201 16.5176L34.8586 15.3706C34.5745 14.9648 34.235 14.6137 33.8406 14.323L32.6542 15.9332ZM33.2343 16.5373C33.3777 16.7319 33.5073 16.9904 33.6086 17.3322L35.5262 16.764C35.3714 16.2418 35.1491 15.7643 34.8444 15.3509L33.2343 16.5373ZM33.6187 17.3643C33.7248 17.6825 33.7834 18.0464 33.7834 18.4641H35.7834C35.7834 17.8578 35.698 17.2777 35.5161 16.7319L33.6187 17.3643ZM33.7834 18.4641V19.3761H35.7834V18.4641H33.7834ZM33.7834 19.3761C33.7834 20.575 33.4172 21.3532 32.7965 21.8741L34.0822 23.4061C35.2536 22.423 35.7834 21.0252 35.7834 19.3761H33.7834ZM32.8046 21.8674C32.1434 22.4105 31.1563 22.7441 29.7194 22.7441V24.7441C31.4505 24.7441 32.9434 24.3417 34.0741 23.4128L32.8046 21.8674Z" fill="#341A41" fill-opacity="0.3" mask="url(#path-1-outside-1_911_9421)"/>
<path d="M6.93231 26.6961C5.94031 26.6961 5.09231 26.5281 4.38831 26.1921C3.70031 25.8401 3.17231 25.3201 2.80431 24.6321C2.45231 23.9441 2.27631 23.1041 2.27631 22.1121V13.4721C2.27631 12.4321 2.46031 11.5601 2.82831 10.8561C3.19631 10.1361 3.73231 9.6001 4.43631 9.2481C5.15631 8.8801 5.99631 8.6961 6.95631 8.6961H10.6523C11.6603 8.6961 12.4923 8.8881 13.1483 9.2721C13.8203 9.6401 14.3243 10.1841 14.6603 10.9041C14.9963 11.6081 15.1643 12.4641 15.1643 13.4721V22.1121C15.1643 23.6001 14.7643 24.7361 13.9643 25.5201C13.1803 26.3041 12.0763 26.6961 10.6523 26.6961H6.93231ZM7.77231 23.5041H9.69231C10.3483 23.5041 10.8283 23.3441 11.1323 23.0241C11.4523 22.7041 11.6123 22.2241 11.6123 21.5841V13.8081C11.6123 13.1041 11.4523 12.6081 11.1323 12.3201C10.8123 12.0321 10.3803 11.8881 9.83631 11.8881H7.65231C7.06031 11.8881 6.60431 12.0481 6.28431 12.3681C5.98031 12.6881 5.82831 13.1681 5.82831 13.8081V21.5601C5.82831 22.2321 5.99631 22.7281 6.33231 23.0481C6.66831 23.3521 7.14831 23.5041 7.77231 23.5041ZM23.7194 26.7441C22.4394 26.7441 21.2154 26.6961 20.0474 26.6001C18.8954 26.5201 17.8554 26.4001 16.9274 26.2401V23.3841H22.3754C23.0314 23.3841 23.5674 23.3361 23.9834 23.2401C24.3994 23.1441 24.7034 22.9761 24.8954 22.7361C25.1034 22.4961 25.2074 22.1601 25.2074 21.7281V20.9841C25.2074 20.5521 25.1034 20.2161 24.8954 19.9761C24.6874 19.7201 24.4074 19.5361 24.0554 19.4241C23.7194 19.2961 23.3274 19.2241 22.8794 19.2081L18.5114 19.0401V16.3041L22.7354 16.0641C23.4554 16.0321 24.0154 15.9041 24.4154 15.6801C24.8154 15.4561 25.0154 15.0721 25.0154 14.5281V13.9281C25.0154 13.2881 24.7994 12.8161 24.3674 12.5121C23.9514 12.2081 23.2474 12.0561 22.2554 12.0561H17.3114V9.2241C18.2234 9.0801 19.2154 8.9521 20.2874 8.8401C21.3594 8.7121 22.4874 8.6641 23.6714 8.6961C24.7114 8.7121 25.5914 8.8881 26.3114 9.2241C27.0314 9.5441 27.5754 10.0321 27.9434 10.6881C28.3274 11.3281 28.5194 12.1281 28.5194 13.0881V14.4081C28.5194 14.8561 28.4634 15.2641 28.3514 15.6321C28.2554 16.0001 28.1034 16.3201 27.8954 16.5921C27.6874 16.8481 27.4474 17.0721 27.1754 17.2641C26.9034 17.4401 26.6154 17.5761 26.3114 17.6721C26.6474 17.7521 26.9594 17.9041 27.2474 18.1281C27.5514 18.3521 27.8154 18.6241 28.0394 18.9441C28.2634 19.2481 28.4394 19.6161 28.5674 20.0481C28.7114 20.4801 28.7834 20.9521 28.7834 21.4641V22.3761C28.7834 23.8001 28.3354 24.8881 27.4394 25.6401C26.5434 26.3761 25.3034 26.7441 23.7194 26.7441Z" fill="#341A41"/>
</svg>
