<svg width="11" height="20" viewBox="0 0 11 20" fill="none" xmlns="http://www.w3.org/2000/svg">
<path d="M0.514751 1.18345C0.360245 1.33764 0.237666 1.52079 0.15403 1.72241C0.0703941 1.92403 0.0273437 2.14017 0.0273438 2.35845C0.0273437 2.57673 0.0703941 2.79287 0.15403 2.99449C0.237666 3.19611 0.360245 3.37926 0.514751 3.53345L6.98142 10.0001L0.514751 16.4668C0.203121 16.7784 0.0280495 17.2011 0.0280495 17.6418C0.0280495 18.0825 0.203121 18.5052 0.514751 18.8168C0.82638 19.1284 1.24904 19.3035 1.68975 19.3035C2.13046 19.3035 2.55312 19.1284 2.86475 18.8168L10.5148 11.1668C10.6693 11.0126 10.7918 10.8294 10.8755 10.6278C10.9591 10.4262 11.0022 10.2101 11.0022 9.99178C11.0022 9.7735 10.9591 9.55737 10.8755 9.35574C10.7918 9.15412 10.6693 8.97097 10.5148 8.81678L2.86475 1.16678C2.23142 0.533451 1.16475 0.533452 0.514751 1.18345Z" fill="#341A41"/>
</svg>