<svg width="11" height="20" viewBox="0 0 11 20" fill="none" xmlns="http://www.w3.org/2000/svg">
<path d="M10.4852 18.8165C10.6398 18.6624 10.7623 18.4792 10.846 18.2776C10.9296 18.076 10.9727 17.8598 10.9727 17.6415C10.9727 17.4233 10.9296 17.2071 10.846 17.0055C10.7623 16.8039 10.6398 16.6207 10.4852 16.4665L4.01858 9.99988L10.4852 3.53322C10.7969 3.22159 10.972 2.79893 10.972 2.35822C10.972 1.91751 10.7969 1.49484 10.4852 1.18321C10.1736 0.871586 9.75096 0.696516 9.31025 0.696516C8.86954 0.696516 8.44688 0.871586 8.13525 1.18321L0.48525 8.83322C0.330744 8.98741 0.208164 9.17055 0.124529 9.37218C0.0408926 9.5738 -0.00215626 9.78994 -0.00215626 10.0082C-0.00215626 10.2265 0.0408926 10.4426 0.124529 10.6443C0.208164 10.8459 0.330744 11.029 0.48525 11.1832L8.13525 18.8332C8.76858 19.4665 9.83525 19.4665 10.4852 18.8165Z" fill="#341A41"/>
</svg>