<svg width="28" height="30" viewBox="0 0 28 30" fill="none" xmlns="http://www.w3.org/2000/svg">
<path d="M14.0001 0C6.63341 0 0.666748 2.98333 0.666748 6.66667C0.666748 10.35 6.63341 13.3333 14.0001 13.3333C21.3667 13.3333 27.3334 10.35 27.3334 6.66667C27.3334 2.98333 21.3667 0 14.0001 0ZM0.666748 10V15C0.666748 18.6833 6.63341 21.6667 14.0001 21.6667C21.3667 21.6667 27.3334 18.6833 27.3334 15V10C27.3334 13.6833 21.3667 16.6667 14.0001 16.6667C6.63341 16.6667 0.666748 13.6833 0.666748 10ZM0.666748 18.3333V23.3333C0.666748 27.0167 6.63341 30 14.0001 30C21.3667 30 27.3334 27.0167 27.3334 23.3333V18.3333C27.3334 22.0167 21.3667 25 14.0001 25C6.63341 25 0.666748 22.0167 0.666748 18.3333Z" fill="#341A41"/>
</svg>
