<svg width="64" height="64" viewBox="0 0 64 64" fill="none" xmlns="http://www.w3.org/2000/svg">
<path d="M46.2117 25.2885C47.3705 24.1339 47.342 22.2893 46.1481 21.1686C44.9542 20.0479 43.047 20.0755 41.8882 21.2302L26.5073 36.5573L22.1118 32.1771C20.953 31.0224 19.0458 30.9949 17.8519 32.1155C16.658 33.2362 16.6295 35.0808 17.7883 36.2355L24.3456 42.7698C24.9129 43.3351 25.6927 43.6542 26.5073 43.6542C27.3219 43.6542 28.1017 43.3351 28.6691 42.7698L46.2117 25.2885Z" fill="#341A41"/>
<path fill-rule="evenodd" clip-rule="evenodd" d="M39.5367 2.94876C35.3345 -0.982919 28.6655 -0.982919 24.4633 2.94876C23.396 3.94738 21.9119 4.41375 20.4415 4.2126C14.6524 3.42066 9.25705 7.21185 8.24687 12.7815C7.99029 14.1962 7.07307 15.4171 5.76125 16.0903C0.596464 18.7406 -1.46437 24.8749 1.10332 29.9551C1.7555 31.2454 1.7555 32.7546 1.10332 34.0449C-1.46437 39.1251 0.596465 45.2594 5.76125 47.9097C7.07307 48.5829 7.99029 49.8038 8.24687 51.2185C9.25705 56.7881 14.6524 60.5793 20.4415 59.7874C21.9119 59.5862 23.396 60.0526 24.4633 61.0512C28.6655 64.9829 35.3345 64.9829 39.5367 61.0512C40.604 60.0526 42.0881 59.5862 43.5585 59.7874C49.3476 60.5793 54.743 56.7881 55.7531 51.2185C56.0097 49.8038 56.9269 48.5829 58.2388 47.9097C63.4035 45.2594 65.4644 39.1251 62.8967 34.0449C62.2445 32.7546 62.2445 31.2454 62.8967 29.9551C65.4644 24.8748 63.4035 18.7406 58.2388 16.0903C56.9269 15.4171 56.0097 14.1962 55.7531 12.7815C54.743 7.21185 49.3476 3.42066 43.5585 4.2126C42.0881 4.41375 40.604 3.94738 39.5367 2.94876ZM28.6525 7.13683C30.5189 5.39051 33.4811 5.39051 35.3475 7.13683C37.7505 9.38513 41.0919 10.4351 44.4023 9.98226C46.9736 9.63051 49.3701 11.3144 49.8188 13.7883C50.3964 16.9732 52.4615 19.7222 55.4149 21.2377C57.7089 22.4149 58.6243 25.1395 57.4838 27.396C56.0155 30.3011 56.0155 33.6989 57.4838 36.604C58.6243 38.8605 57.7089 41.5851 55.4149 42.7623C52.4615 44.2778 50.3964 47.0268 49.8188 50.2117C49.3701 52.6856 46.9736 54.3695 44.4023 54.0177C41.0919 53.5649 37.7505 54.6149 35.3475 56.8632C33.4811 58.6095 30.5189 58.6095 28.6525 56.8632C26.2495 54.6149 22.9082 53.5649 19.5977 54.0177C17.0264 54.3695 14.6299 52.6856 14.1813 50.2117C13.6036 47.0268 11.5386 44.2778 8.5851 42.7623C6.29108 41.5851 5.37572 38.8605 6.5162 36.604C7.98452 33.6989 7.98452 30.3011 6.5162 27.396C5.37572 25.1395 6.29108 22.4149 8.5851 21.2377C11.5385 19.7222 13.6036 16.9732 14.1813 13.7883C14.6299 11.3144 17.0264 9.63051 19.5977 9.98226C22.9082 10.4351 26.2495 9.38513 28.6525 7.13683Z" fill="#341A41"/>
</svg>
