<svg width="34" height="24" viewBox="0 0 34 24" fill="none" xmlns="http://www.w3.org/2000/svg">
<path d="M5.21659 0.216797C3.66655 1.76238 2.43719 3.59902 1.59915 5.62119C0.761112 7.64336 0.330909 9.81119 0.333262 12.0001C0.333262 16.6001 2.19993 20.7668 5.21659 23.7835L7.5666 21.4335C6.3242 20.1977 5.33967 18.7275 4.67017 17.1081C4.00067 15.4887 3.65954 13.7524 3.66659 12.0001C3.66659 8.3168 5.14993 4.9668 7.5666 2.5668L5.21659 0.216797ZM28.7833 0.216797L26.4333 2.5668C27.6744 3.80349 28.6581 5.27392 29.3275 6.89309C29.9969 8.51226 30.3387 10.2481 30.3333 12.0001C30.3333 15.7001 28.8499 19.0335 26.4333 21.4335L28.7833 23.7835C30.3333 22.2379 31.5627 20.4012 32.4007 18.3791C33.2387 16.3569 33.6689 14.1891 33.6666 12.0001C33.6666 7.40013 31.7999 3.23346 28.7833 0.216797ZM9.93326 4.93346C9.00293 5.86007 8.26486 6.96137 7.76146 8.1741C7.25807 9.38683 6.99927 10.6871 6.99993 12.0001C6.99993 14.7501 8.11659 17.2501 9.93326 19.0668L12.2833 16.7168C11.6636 16.0978 11.1724 15.3624 10.8377 14.553C10.5031 13.7436 10.3317 12.876 10.3333 12.0001C10.3333 10.1501 11.0833 8.48346 12.2833 7.28346L9.93326 4.93346ZM24.0666 4.93346L21.7166 7.28346C22.3362 7.9025 22.8275 8.63785 23.1621 9.44727C23.4967 10.2567 23.6682 11.1243 23.6666 12.0001C23.6666 13.8501 22.9166 15.5168 21.7166 16.7168L24.0666 19.0668C24.9969 18.1402 25.735 17.0389 26.2384 15.8262C26.7418 14.6134 27.0006 13.3132 26.9999 12.0001C26.9999 9.25013 25.8833 6.75013 24.0666 4.93346ZM16.9999 8.6668C16.1159 8.6668 15.268 9.01799 14.6429 9.64311C14.0178 10.2682 13.6666 11.1161 13.6666 12.0001C13.6666 12.8842 14.0178 13.732 14.6429 14.3572C15.268 14.9823 16.1159 15.3335 16.9999 15.3335C17.884 15.3335 18.7318 14.9823 19.3569 14.3572C19.9821 13.732 20.3333 12.8842 20.3333 12.0001C20.3333 11.1161 19.9821 10.2682 19.3569 9.64311C18.7318 9.01799 17.884 8.6668 16.9999 8.6668Z" fill="black"/>
</svg>
