<svg width="22" height="22" viewBox="0 0 22 22" fill="none" xmlns="http://www.w3.org/2000/svg">
<path d="M11 2.5C13.75 2.5 14.125 2.5 15.25 2.5C16.25 2.5 16.75 2.75 17.125 2.875C17.625 3.125 18 3.25 18.375 3.625C18.75 4 19 4.375 19.125 4.875C19.25 5.25 19.375 5.75 19.5 6.75C19.5 7.875 19.5 8.125 19.5 11C19.5 13.875 19.5 14.125 19.5 15.25C19.5 16.25 19.25 16.75 19.125 17.125C18.875 17.625 18.75 18 18.375 18.375C18 18.75 17.625 19 17.125 19.125C16.75 19.25 16.25 19.375 15.25 19.5C14.125 19.5 13.875 19.5 11 19.5C8.125 19.5 7.875 19.5 6.75 19.5C5.75 19.5 5.25 19.25 4.875 19.125C4.375 18.875 4 18.75 3.625 18.375C3.25 18 3 17.625 2.875 17.125C2.75 16.75 2.625 16.25 2.5 15.25C2.5 14.125 2.5 13.875 2.5 11C2.5 8.125 2.5 7.875 2.5 6.75C2.5 5.75 2.75 5.25 2.875 4.875C3.125 4.375 3.25 4 3.625 3.625C4 3.25 4.375 3 4.875 2.875C5.25 2.75 5.75 2.625 6.75 2.5C7.875 2.5 8.25 2.5 11 2.5ZM11 0.625C8.125 0.625 7.875 0.625 6.75 0.625C5.625 0.625 4.875 0.875001 4.25 1.125C3.625 1.375 3 1.75 2.375 2.375C1.75 3 1.5 3.5 1.125 4.25C0.875001 4.875 0.75 5.625 0.625 6.75C0.625 7.875 0.625 8.25 0.625 11C0.625 13.875 0.625 14.125 0.625 15.25C0.625 16.375 0.875001 17.125 1.125 17.75C1.375 18.375 1.75 19 2.375 19.625C3 20.25 3.5 20.5 4.25 20.875C4.875 21.125 5.625 21.25 6.75 21.375C7.875 21.375 8.25 21.375 11 21.375C13.75 21.375 14.125 21.375 15.25 21.375C16.375 21.375 17.125 21.125 17.75 20.875C18.375 20.625 19 20.25 19.625 19.625C20.25 19 20.5 18.5 20.875 17.75C21.125 17.125 21.25 16.375 21.375 15.25C21.375 14.125 21.375 13.75 21.375 11C21.375 8.25 21.375 7.875 21.375 6.75C21.375 5.625 21.125 4.875 20.875 4.25C20.625 3.625 20.25 3 19.625 2.375C19 1.75 18.5 1.5 17.75 1.125C17.125 0.875001 16.375 0.75 15.25 0.625C14.125 0.625 13.875 0.625 11 0.625Z" fill="white"/>
<path d="M11 5.625C8 5.625 5.625 8 5.625 11C5.625 14 8 16.375 11 16.375C14 16.375 16.375 14 16.375 11C16.375 8 14 5.625 11 5.625ZM11 14.5C9.125 14.5 7.5 13 7.5 11C7.5 9.125 9 7.5 11 7.5C12.875 7.5 14.5 9 14.5 11C14.5 12.875 12.875 14.5 11 14.5Z" fill="white"/>
<path d="M16.5 6.75C17.1904 6.75 17.75 6.19036 17.75 5.5C17.75 4.80964 17.1904 4.25 16.5 4.25C15.8096 4.25 15.25 4.80964 15.25 5.5C15.25 6.19036 15.8096 6.75 16.5 6.75Z" fill="white"/>
</svg>
