<svg width="30" height="20" viewBox="0 0 30 20" fill="none" xmlns="http://www.w3.org/2000/svg">
<path d="M0 0H30V20H0V0ZM15 5C16.3261 5 17.5979 5.52678 18.5355 6.46447C19.4732 7.40215 20 8.67392 20 10C20 11.3261 19.4732 12.5979 18.5355 13.5355C17.5979 14.4732 16.3261 15 15 15C13.6739 15 12.4021 14.4732 11.4645 13.5355C10.5268 12.5979 10 11.3261 10 10C10 8.67392 10.5268 7.40215 11.4645 6.46447C12.4021 5.52678 13.6739 5 15 5ZM6.66667 3.33333C6.66667 4.21739 6.31548 5.06523 5.69036 5.69036C5.06523 6.31548 4.21739 6.66667 3.33333 6.66667V13.3333C4.21739 13.3333 5.06523 13.6845 5.69036 14.3096C6.31548 14.9348 6.66667 15.7826 6.66667 16.6667H23.3333C23.3333 15.7826 23.6845 14.9348 24.3096 14.3096C24.9348 13.6845 25.7826 13.3333 26.6667 13.3333V6.66667C25.7826 6.66667 24.9348 6.31548 24.3096 5.69036C23.6845 5.06523 23.3333 4.21739 23.3333 3.33333H6.66667Z" fill="#341A41"/>
</svg>
