<svg width="20" height="18" viewBox="0 0 20 18" fill="none" xmlns="http://www.w3.org/2000/svg">
<path d="M20 2.75C19.25 3.125 18.5 3.25 17.625 3.375C18.5 2.875 19.125 2.125 19.375 1.125C18.625 1.625 17.75 1.875 16.75 2.125C16 1.375 14.875 0.875 13.75 0.875C11.125 0.875 9.125 3.375 9.75 5.875C6.375 5.75 3.375 4.125 1.25 1.625C0.125 3.5 0.75 5.875 2.5 7.125C1.875 7.125 1.25 6.875 0.625 6.625C0.625 8.5 2 10.25 3.875 10.75C3.25 10.875 2.625 11 2 10.875C2.5 12.5 4 13.75 5.875 13.75C4.375 14.875 2.125 15.5 0 15.25C1.875 16.375 4 17.125 6.25 17.125C13.875 17.125 18.125 10.75 17.875 4.875C18.75 4.375 19.5 3.625 20 2.75Z" fill="white"/>
</svg>
