<svg width="33" height="29" viewBox="0 0 33 29" fill="none" xmlns="http://www.w3.org/2000/svg">
<path d="M30.1667 14.8332L32.5 17.1832L21.6167 28.1665L15.8333 22.3332L18.1667 19.9832L21.6167 23.4498L30.1667 14.8332ZM13.3333 0.666504C15.1014 0.666504 16.7971 1.36888 18.0474 2.61913C19.2976 3.86937 20 5.56506 20 7.33317C20 9.10128 19.2976 10.797 18.0474 12.0472C16.7971 13.2975 15.1014 13.9998 13.3333 13.9998C11.5652 13.9998 9.86953 13.2975 8.61929 12.0472C7.36905 10.797 6.66667 9.10128 6.66667 7.33317C6.66667 5.56506 7.36905 3.86937 8.61929 2.61913C9.86953 1.36888 11.5652 0.666504 13.3333 0.666504ZM13.3333 3.99984C12.4493 3.99984 11.6014 4.35103 10.9763 4.97615C10.3512 5.60127 10 6.44912 10 7.33317C10 8.21723 10.3512 9.06507 10.9763 9.69019C11.6014 10.3153 12.4493 10.6665 13.3333 10.6665C14.2174 10.6665 15.0652 10.3153 15.6904 9.69019C16.3155 9.06507 16.6667 8.21723 16.6667 7.33317C16.6667 6.44912 16.3155 5.60127 15.6904 4.97615C15.0652 4.35103 14.2174 3.99984 13.3333 3.99984ZM13.3333 15.6665C14.4667 15.6665 15.8333 15.8165 17.35 16.0998L14.5667 18.8832L13.3333 18.8332C8.38333 18.8332 3.16667 21.2665 3.16667 22.3332V24.1665H13.5L16.6667 27.3332H0V22.3332C0 17.8998 8.88333 15.6665 13.3333 15.6665Z" fill="#341A41"/>
</svg>
